<svg width="2220" height="2040" viewBox="0 0 2220 2040" fill="none" xmlns="http://www.w3.org/2000/svg">
<g id="Scene/Wireframe">
<path id="Twisted Leaf" fill-rule="evenodd" clip-rule="evenodd" d="M2070.68 586.002C2069.08 584.839 2065.28 584.426 2063.51 584.077C2056.17 582.63 2048.61 582 2041.12 582C2018.04 582.035 1994.59 584.3 1971.89 588.221C1957.48 590.71 1940.06 599.087 1925.73 594.538C1900.75 586.611 1875.51 587.001 1851.82 598.317C1830.16 608.664 1813.71 628.317 1804.12 649.552C1802.67 652.758 1796.8 664.556 1795.13 672.509C1794.42 674.135 1793.74 675.772 1793.12 677.434C1791.38 682.152 1789.81 686.953 1788.35 691.764C1787.73 693.816 1786.17 698.347 1788.02 699.223C1785.06 704.702 1782.42 710.349 1780.23 716.179C1773.86 733.134 1766.89 751.733 1764.65 769.703C1763.82 776.357 1763.79 783.05 1764.56 789.717C1764.94 793.013 1764.78 799.639 1767.01 802.145C1771.75 807.461 1774.19 800.018 1773.65 796.473C1769.57 769.454 1777.45 744.081 1786.79 718.683C1792.83 702.26 1802.76 687.235 1813.88 673.628C1822.87 662.613 1832.53 653.94 1844.86 646.637C1859.94 637.707 1876.07 630.488 1892.04 623.246C1902.55 618.482 1913.07 613.845 1923.87 609.74C1926.28 608.826 1930.05 606.484 1932.72 606.475C1938.35 606.455 1946.33 610.611 1951.77 612.157C1969.66 617.244 1987.78 623.757 2006.27 626.354C2018.14 628.022 2029.25 626.145 2040.34 622.193C2041.47 621.791 2043.37 620.753 2045.7 619.271C2053.94 616.103 2061.73 612.116 2068.51 606.364C2072.42 603.05 2075.97 598.767 2079.2 594.847C2080.17 593.675 2080.6 592.331 2080.61 591.055C2081.34 590.672 2081.83 590.224 2081.94 589.702C2082.75 585.844 2075.39 585.773 2070.68 586.002" fill="#338FFF"/>
<path id="Fill 16" fill-rule="evenodd" clip-rule="evenodd" d="M195.82 907.622C191.292 911.289 186.851 915.034 182.519 918.931C179.217 921.901 173.373 925.456 172.188 929.956C170.956 934.631 174.846 939.008 177.919 941.835C194.17 956.786 212.469 966.895 234.988 968.576C269.661 971.165 299.837 962.31 329.921 944.888C351.053 932.649 365.051 914.546 368.108 890.102C393.275 900.562 417.616 914.978 438.3 932.672C448.506 941.403 457.296 951.076 465.427 961.798C470.634 968.666 475.671 975.645 480.345 982.892C482.377 986.041 484.443 991.625 487.798 993.438C491.736 995.569 496.496 992.23 496.301 987.851C496.138 984.207 492.203 979.98 490.363 977.001C487.307 972.054 484.205 967.138 480.938 962.327C475.653 954.538 470.19 946.859 464.231 939.569C450.841 923.191 433.804 909.662 416.143 898.125C382.261 875.991 345.076 862.047 303.849 860.866C278.5 860.138 257.174 868.8 235.496 881.734C222 889.786 208.067 897.704 195.82 907.622" fill="#DDE3E9"/>
<path id="Leaf" fill-rule="evenodd" clip-rule="evenodd" d="M524.649 800.567C498.232 773.362 471.724 746.495 442.21 722.54C424.816 708.424 406.485 695.588 388.532 682.203C390.604 684.017 392.635 685.885 394.618 687.797C389.014 683.993 381.678 681.843 375.737 678.322C369.11 674.394 362.775 669.902 356.561 665.373C344.433 656.535 332.487 647.53 320.02 639.153C306.129 629.821 291.734 621.198 277.607 612.217C265.618 604.596 253.482 596.254 240.655 590.023C233.665 586.627 226.658 582.602 219.639 579.06C217.289 577.875 193.452 562.823 193.512 562.778C194.83 561.785 206.825 567.421 208.68 568.179C214.099 570.393 219.281 573.04 224.491 575.679C221.632 570.039 219.368 564.113 218.136 557.875C217.755 555.95 214.706 541.933 216.266 540.757C217.045 540.17 224.65 565.247 225.04 567.659C225.356 569.617 225.31 572.437 225.951 574.292C226.986 577.287 226.934 576.382 229.214 578.07C233.393 581.162 238.94 583.095 243.463 585.68C245.903 587.041 253.454 592.441 258.003 593.98C271.765 600.664 285.715 610.948 298.791 619.486C295.359 613.036 292.747 606.292 290.843 599.224C290.39 597.546 285.502 582.494 286.688 581.6C288.023 580.595 297.335 603.584 297.887 605.76C298.911 609.803 299.124 614.303 300.407 618.236C301.816 622.553 306.21 624.084 310.171 626.6C324.742 635.859 338.814 645.697 352.651 655.986C367.749 629.134 350.341 596.708 335.669 574.179C325.093 557.941 310.856 544.02 295.823 531.867C275.761 515.647 252.807 502.689 229.881 490.837C203.168 477.026 174.296 468.469 144.28 464.516C128.581 462.448 112.52 462.506 96.6625 463.169C88.916 463.493 81.4806 464.519 74.057 467.045C70.7111 468.185 67.4775 469.622 64.3263 471.231C61.932 472.453 56.1401 473.743 54.7636 475.564C43.4316 490.313 37.6343 505.011 38.5196 523.545C39.3567 541.089 44.8978 558.643 52.4175 574.293C60.7919 591.719 71.5627 607.535 85.649 620.809C96.3962 630.937 108.412 639.751 120.348 648.45C162.801 679.39 216.625 706.298 271.609 699.385C289.407 697.148 306.336 690.924 322.156 682.466C325.884 680.472 329.589 678.457 333.108 676.103C335.48 674.517 341.823 667.368 344.209 667.109C347.48 666.753 354.526 673.406 357.595 675.431C380.916 690.826 403.626 707.054 425.86 723.939C449.516 741.904 472.011 761.091 493.844 781.18C503.13 789.725 512.357 798.289 521.374 807.121C523.473 809.175 528.606 816.742 532.412 817.084C534.82 817.301 536.442 815.246 536.099 813.019C535.502 809.146 527.354 803.352 524.649 800.567" fill="#A3CCFF"/>
<path id="Fill 10" fill-rule="evenodd" clip-rule="evenodd" d="M2042.94 694.979C2032.71 692.744 2021.41 692.915 2010.99 693.099C1955.09 693.86 1900.19 720.326 1864.47 762.614C1834.05 798.615 1825.69 843.375 1819.68 888.621C1819.09 893.113 1818.83 897.577 1818.49 902.079C1818.42 903.045 1818.31 903.906 1818.2 904.718C1815.84 906.83 1814.6 909.293 1815.99 911.999C1810.79 923.39 1806.39 935.071 1802.61 947.118C1791.49 982.578 1780.17 1018.71 1787.14 1056C1788.77 1035.48 1792.2 1014.5 1796.29 994.315C1796.53 993.156 1796.78 992.006 1797.05 990.861C1797.07 990.74 1797.1 990.619 1797.13 990.499C1798.58 984.319 1800.46 978.323 1802.75 972.422C1802.78 972.357 1802.8 972.294 1802.82 972.23C1803.13 971.454 1803.45 970.681 1803.77 969.909C1804.42 968.31 1805.1 966.713 1805.81 965.126C1806.05 964.585 1806.29 964.039 1806.51 963.488C1809.85 955.311 1811.25 946.096 1814.24 937.635C1814.96 935.711 1815.71 933.794 1816.49 931.888C1816.54 931.776 1816.58 931.664 1816.63 931.553C1818.75 926.422 1821.09 921.354 1823.56 916.339C1824.9 915.329 1825.62 912.823 1826.78 910.545C1827.02 910.096 1828.89 907.104 1829.45 905.38C1830.91 902.562 1832.36 899.744 1833.83 896.931C1833.78 896.948 1833.74 896.964 1833.69 896.981C1835.16 894.28 1836.63 891.591 1838.09 888.913C1838.42 888.325 1838.74 887.736 1839.06 887.145C1839.59 886.206 1840.11 885.268 1840.64 884.331C1845.53 875.569 1850.72 866.981 1856.12 858.5C1858.04 855.474 1862.64 851.134 1863.52 847.736C1863.55 847.609 1863.56 847.492 1863.58 847.37C1875.28 830.938 1888.75 815.782 1904.9 803.772C1902.95 805.883 1898.8 813.045 1897.7 814.463C1894.34 818.805 1890.7 822.847 1887.04 826.937C1880.48 834.266 1874.09 841.827 1868.4 849.822C1858.01 864.443 1849.04 879.832 1840.56 895.529C1840.48 895.621 1840.39 895.708 1840.31 895.802C1836.05 901.055 1833.37 908.994 1830.3 915.003C1842.44 909.38 1855.86 905.718 1868.32 900.725C1880.75 895.748 1892.83 890.206 1904.5 883.697C1920.01 875.047 1936.1 865.28 1950.75 854.228C1967.54 843.812 1981.65 829.475 1994.11 814.43C2008.85 796.63 2022.35 778.673 2030.7 757.059C2034.81 746.438 2038.03 735.363 2039.95 724.159C2040.03 723.671 2040.14 723.141 2040.25 722.591C2042.21 718.721 2043.96 714.765 2045.43 710.717C2047.76 704.297 2053.27 697.235 2042.94 694.979" fill="#338FFF"/>
<path id="Leave the Leaf!" fill-rule="evenodd" clip-rule="evenodd" d="M309.025 770.186C305.82 766.715 302.219 763.584 297.992 761.35C296.923 760.786 288.963 757.004 288.444 757.833C287.236 759.766 308.063 769.078 309.025 770.186M346.769 747C346.743 747.146 349.504 751.83 350.255 753.271C351.855 756.332 353.331 759.454 354.721 762.581C352.664 757.058 350.551 751.934 346.769 747M153.735 785.127C151.077 785.983 147.881 782.608 151.329 781.777C154.119 781.11 153.982 780.953 155.235 778.705C156.252 776.88 156.879 774.654 157.772 772.739C159.666 768.677 161.814 764.803 164.45 761.173C170.101 753.391 176.986 746.685 184.708 741.034C198.184 731.174 213.294 722.161 229.322 717.634C254.808 710.434 283.814 709.989 309.339 714.981C325.148 718.072 339.595 723.446 350.092 736.175C355.339 742.536 359.457 749.988 361.257 758.194C361.727 760.339 361.639 762.724 362.228 764.824C363.132 768.053 362.733 767.193 366.509 767.821C370.633 768.507 374.752 769.207 378.871 769.919C389.656 771.785 400.503 773.765 411.012 776.793C414.47 777.788 417.853 779.006 421.157 780.42C423.656 781.489 433.607 784.845 434.816 788.091C436.829 793.493 430.085 791.045 427.989 789.868C426.154 788.837 424.269 787.876 422.357 786.991C417.542 784.763 412.526 783.04 407.397 781.668C401.854 780.185 396.197 779.078 390.562 777.97C385.307 776.937 380.033 775.997 374.752 775.099C371.818 774.6 368.882 774.115 365.945 773.63C364.942 773.464 363.173 772.596 363.307 773.9C357.134 772.71 350.457 772.882 344.169 772.553C336.467 772.152 328.736 771.822 321.009 772.063C315.435 772.237 309.857 772.603 304.311 773.352C301.071 773.79 297.883 774.43 294.704 775.24C292.957 775.686 286.071 776.631 285.12 778.153C285.529 777.499 293.128 778.133 294.096 778.096C297.965 777.951 301.804 777.568 305.659 777.137C312.812 776.338 319.969 775.92 327.144 775.981C327.117 777.241 322.215 779.485 321.019 780.319C318.336 782.192 315.767 784.234 313.369 786.474C309.146 790.419 304.09 795.307 301.169 799.982C302.03 798.604 306.276 796.811 307.784 795.759C310.198 794.072 312.563 792.273 314.801 790.349C316.867 788.573 318.795 786.655 320.691 784.696C322.586 782.735 325.159 778.658 327.65 777.353C327.801 777.274 328.887 778.132 329.503 777.84C330.125 777.546 330.9 776.077 331.058 776.017C333.376 775.122 337.78 776.235 340.218 776.348C346.54 776.639 352.856 777.02 359.173 777.368C361.13 777.476 362.793 777.031 363.533 778.474C364.32 780.014 362.877 784.061 362.467 785.738C360.943 791.966 358.238 797.551 353.979 802.376C346.004 811.415 336.17 817.44 325.06 821.471C282.506 836.909 237.235 843.092 194.695 827.033C177.083 820.383 150.56 808.503 153.735 785.127" fill="#A3CCFF"/>
<g id="Background Shape 2" opacity="0.6">
<path id="Background Shape" fill-rule="evenodd" clip-rule="evenodd" d="M2102.13 1512.46C2131.08 1708.43 1429.01 1836.25 824.723 1747.05C220.435 1657.84 -56.7844 1309.48 231.572 1123.86C519.929 938.239 2073.18 1316.49 2102.13 1512.46Z" fill="#DDE3E9"/>
</g>
<g id="Mobile3">
<rect id="Container" x="414" y="228" width="477" height="906" rx="8" fill="#F2F2F2"/>
<path id="Touch" fill-rule="evenodd" clip-rule="evenodd" d="M651 1077C675.853 1077 696 1056.85 696 1032C696 1007.15 675.853 987 651 987C626.147 987 606 1007.15 606 1032C606 1056.85 626.147 1077 651 1077Z" fill="white"/>
<g id="Camera">
<path id="Lens" fill-rule="evenodd" clip-rule="evenodd" d="M612 288C615.314 288 618 285.314 618 282C618 278.686 615.314 276 612 276C608.686 276 606 278.686 606 282C606 285.314 608.686 288 612 288Z" fill="white"/>
<rect id="Sensor" x="633" y="276" width="63" height="12" rx="2" fill="white"/>
</g>
<g id="Rows">
<g id="Row">
<rect id="Background" x="456" y="312" width="393" height="162" rx="4" fill="white"/>
<g id="Text" clip-path="url(#clip0_6_2)">
<rect id="Name" x="573" y="360.6" width="219" height="24.3" rx="3" fill="#DDE3E9"/>
<rect id="Name_2" x="573" y="401.1" width="147" height="24.3" rx="3" fill="#DDE3E9"/>
</g>
<path id="Avatar" fill-rule="evenodd" clip-rule="evenodd" d="M519 429C538.882 429 555 412.882 555 393C555 373.118 538.882 357 519 357C499.118 357 483 373.118 483 393C483 412.882 499.118 429 519 429Z" fill="#C5CFD6"/>
</g>
<g id="Row_2">
<rect id="Background_2" x="456" y="498" width="393" height="126" rx="4" fill="white"/>
<g id="Text_2" clip-path="url(#clip1_6_2)">
<rect id="Name_3" x="573" y="535.8" width="219" height="18.9" rx="3" fill="#DDE3E9"/>
<rect id="Name_4" x="573" y="567.3" width="147" height="18.9" rx="3" fill="#DDE3E9"/>
</g>
<path id="Avatar_2" fill-rule="evenodd" clip-rule="evenodd" d="M519 597C538.882 597 555 580.882 555 561C555 541.118 538.882 525 519 525C499.118 525 483 541.118 483 561C483 580.882 499.118 597 519 597Z" fill="#C5CFD6"/>
</g>
<g id="Row_3">
<rect id="Background_3" x="456" y="648" width="393" height="126" rx="4" fill="white"/>
<g id="Text_3" clip-path="url(#clip2_6_2)">
<rect id="Name_5" x="573" y="685.8" width="219" height="18.9" rx="3" fill="#DDE3E9"/>
<rect id="Name_6" x="573" y="717.3" width="147" height="18.9" rx="3" fill="#DDE3E9"/>
</g>
<path id="Avatar_3" fill-rule="evenodd" clip-rule="evenodd" d="M519 747C538.882 747 555 730.882 555 711C555 691.118 538.882 675 519 675C499.118 675 483 691.118 483 711C483 730.882 499.118 747 519 747Z" fill="#AFB9C5"/>
</g>
<g id="Row_4">
<rect id="Background_4" x="456" y="798" width="393" height="126" rx="4" fill="white"/>
<g id="Text_4" clip-path="url(#clip3_6_2)">
<rect id="Name_7" x="573" y="835.8" width="219" height="18.9" rx="3" fill="#DDE3E9"/>
<rect id="Name_8" x="573" y="867.3" width="147" height="18.9" rx="3" fill="#DDE3E9"/>
</g>
<path id="Avatar_4" fill-rule="evenodd" clip-rule="evenodd" d="M519 897C538.882 897 555 880.882 555 861C555 841.118 538.882 825 519 825C499.118 825 483 841.118 483 861C483 880.882 499.118 897 519 897Z" fill="#C5CFD6"/>
</g>
</g>
</g>
<g id="Mobile3_2">
<g id="Group">
<path id="Fill 16_2" fill-rule="evenodd" clip-rule="evenodd" d="M504.42 960C500.445 960 496.483 960.08 492.513 960.286C489.487 960.445 484.864 959.817 482.303 961.703C479.643 963.662 479.826 967.672 480.242 970.504C482.439 985.479 487.8 998.757 499.017 1009.37C516.287 1025.7 536.085 1034 559.513 1037.7C575.969 1040.3 591.162 1036.69 603.276 1024.99C612.128 1041.42 618.843 1059.6 622.212 1077.95C623.874 1087 624.382 1095.94 624.089 1105.16C623.901 1111.07 623.576 1116.96 622.943 1122.84C622.668 1125.39 621.366 1129.26 622.366 1131.67C623.539 1134.5 627.496 1134.78 629.272 1132.36C630.75 1130.35 630.479 1126.4 630.782 1124.02C631.286 1120.07 631.752 1116.11 632.085 1112.14C632.627 1105.71 633.028 1099.26 632.999 1092.81C632.931 1078.31 629.707 1063.75 625.297 1049.98C616.837 1023.58 603.11 1000.11 581.762 981.694C568.635 970.371 553.612 965.786 536.567 963.325C525.955 961.792 515.17 960 504.42 960" fill="#338FFF"/>
<path id="Fill 18" fill-rule="evenodd" clip-rule="evenodd" d="M565.714 1065C522.817 1065 493.926 1099.57 480.266 1135.5C475.117 1149.05 473.91 1163.92 471.925 1178.14C471.288 1182.71 471.524 1189.66 469.672 1193.73C468.999 1195.2 467.458 1195.73 468.195 1197.74C468.641 1198.96 469.516 1199.7 470.831 1199.94C473.529 1200.44 477.344 1197.5 479.658 1196.34C498.846 1186.72 511.453 1171.84 521.737 1153.63C528.113 1142.35 534.581 1130.64 538.368 1118.25C540.682 1110.68 542.028 1102.71 542.819 1094.86C543.131 1091.77 543.432 1088.61 543.414 1085.49C543.395 1082.41 541.96 1080.78 540.928 1078.09C555.241 1072.67 571.397 1071.2 585.896 1076.81C599.306 1082 610.445 1092.04 616.683 1104.65C618.304 1107.92 619.553 1111.38 620.464 1114.91C621.059 1117.22 621.088 1120.21 622.193 1122.3C624.871 1127.36 630.505 1123.98 629.964 1119.27C628.455 1106.12 620.936 1092.93 611.325 1083.79C599.203 1072.26 582.773 1065 565.714 1065" fill="#338FFF"/>
</g>
<rect id="Container_2" x="612" y="306" width="477" height="906" rx="8" fill="#DDE3E9"/>
<path id="Touch_2" fill-rule="evenodd" clip-rule="evenodd" d="M849 1155C873.853 1155 894 1134.85 894 1110C894 1085.15 873.853 1065 849 1065C824.147 1065 804 1085.15 804 1110C804 1134.85 824.147 1155 849 1155Z" fill="white"/>
<g id="Camera_2">
<path id="Lens_2" fill-rule="evenodd" clip-rule="evenodd" d="M810 366C813.314 366 816 363.314 816 360C816 356.686 813.314 354 810 354C806.686 354 804 356.686 804 360C804 363.314 806.686 366 810 366Z" fill="white"/>
<rect id="Sensor_2" x="831" y="354" width="63" height="12" rx="2" fill="white"/>
</g>
<g id="Rows_2">
<g id="Row_5">
<rect id="Container_3" x="654" y="390" width="393" height="162" rx="4" fill="white"/>
<g id="Text Stuff" clip-path="url(#clip4_6_2)">
<rect id="Label" x="681" y="438.6" width="219" height="24.3" rx="3" fill="#DDE3E9"/>
<rect id="Label_2" x="681" y="479.1" width="147" height="24.3" rx="3" fill="#DDE3E9"/>
</g>
<g id="Check">
<path id="Background_5" fill-rule="evenodd" clip-rule="evenodd" d="M1005 492C1016.6 492 1026 482.598 1026 471C1026 459.402 1016.6 450 1005 450C993.402 450 984 459.402 984 471C984 482.598 993.402 492 1005 492Z" fill="#DDE3E9"/>
<path id="Indicator" fill-rule="evenodd" clip-rule="evenodd" d="M1005 480C1009.97 480 1014 475.971 1014 471C1014 466.029 1009.97 462 1005 462C1000.03 462 996 466.029 996 471C996 475.971 1000.03 480 1005 480Z" fill="#F2F2F2"/>
</g>
</g>
<g id="Row_6">
<rect id="Background_6" x="654" y="576" width="393" height="126" rx="4" fill="white"/>
<g id="Text_5" clip-path="url(#clip5_6_2)">
<rect id="Name_9" x="771" y="613.8" width="219" height="18.9" rx="3" fill="#DDE3E9"/>
<rect id="Name_10" x="771" y="645.3" width="147" height="18.9" rx="3" fill="#DDE3E9"/>
</g>
<path id="Avatar_5" fill-rule="evenodd" clip-rule="evenodd" d="M717 675C736.882 675 753 658.882 753 639C753 619.118 736.882 603 717 603C697.118 603 681 619.118 681 639C681 658.882 697.118 675 717 675Z" fill="#C5CFD6"/>
</g>
<g id="Row_7">
<rect id="Container_4" x="654" y="726" width="393" height="126" rx="4" fill="white"/>
<g id="Text Stuff_2" clip-path="url(#clip6_6_2)">
<rect id="Label_3" x="681" y="763.8" width="219" height="18.9" rx="3" fill="#DDE3E9"/>
<rect id="Label_4" x="681" y="795.3" width="147" height="18.9" rx="3" fill="#AFB9C5"/>
</g>
<g id="Check_2">
<path id="Background_7" fill-rule="evenodd" clip-rule="evenodd" d="M1005 810C1016.6 810 1026 800.598 1026 789C1026 777.402 1016.6 768 1005 768C993.402 768 984 777.402 984 789C984 800.598 993.402 810 1005 810Z" fill="#DDE3E9"/>
<path id="Indicator_2" fill-rule="evenodd" clip-rule="evenodd" d="M1005 798C1009.97 798 1014 793.971 1014 789C1014 784.029 1009.97 780 1005 780C1000.03 780 996 784.029 996 789C996 793.971 1000.03 798 1005 798Z" fill="#F2F2F2"/>
</g>
</g>
<g id="Row_8">
<rect id="Background_8" x="654" y="876" width="393" height="126" rx="4" fill="white"/>
<g id="Text_6" clip-path="url(#clip7_6_2)">
<rect id="Name_11" x="771" y="913.8" width="219" height="18.9" rx="3" fill="#DDE3E9"/>
<rect id="Name_12" x="771" y="945.3" width="147" height="18.9" rx="3" fill="#DDE3E9"/>
</g>
<path id="Avatar_6" fill-rule="evenodd" clip-rule="evenodd" d="M717 975C736.882 975 753 958.882 753 939C753 919.118 736.882 903 717 903C697.118 903 681 919.118 681 939C681 958.882 697.118 975 717 975Z" fill="#C5CFD6"/>
</g>
</g>
</g>
<g id="Web">
<rect id="Container_5" x="810" y="381" width="1005" height="1038" rx="8" fill="#F2F2F2"/>
<rect id="Background_9" x="1557" y="510" width="210" height="243" rx="8" fill="white"/>
<g id="Profile Info">
<path id="Avatar_7" fill-rule="evenodd" clip-rule="evenodd" d="M1662 651C1688.51 651 1710 629.51 1710 603C1710 576.49 1688.51 555 1662 555C1635.49 555 1614 576.49 1614 603C1614 629.51 1635.49 651 1662 651Z" fill="#DDE3E9"/>
<rect id="Name_13" x="1587" y="663" width="150" height="18" rx="3" fill="#DDE3E9"/>
<rect id="Name_14" x="1611" y="693" width="102" height="18" rx="3" fill="#DDE3E9"/>
</g>
<path id="Header" d="M810 405C810 391.745 820.745 381 834 381H1791C1804.25 381 1815 391.745 1815 405V462H810V405Z" fill="#C5CFD6"/>
<g id="Buttons">
<path id="buttons" fill-rule="evenodd" clip-rule="evenodd" d="M849 435C855.627 435 861 429.627 861 423C861 416.373 855.627 411 849 411C842.373 411 837 416.373 837 423C837 429.627 842.373 435 849 435Z" fill="#F2F2F2"/>
<path id="buttons_2" fill-rule="evenodd" clip-rule="evenodd" d="M885 435C891.627 435 897 429.627 897 423C897 416.373 891.627 411 885 411C878.373 411 873 416.373 873 423C873 429.627 878.373 435 885 435Z" fill="#F2F2F2"/>
<path id="buttons_3" fill-rule="evenodd" clip-rule="evenodd" d="M921 435C927.627 435 933 429.627 933 423C933 416.373 927.627 411 921 411C914.373 411 909 416.373 909 423C909 429.627 914.373 435 921 435Z" fill="#F2F2F2"/>
</g>
<g id="Components">
<rect id="Background_10" x="1557" y="777" width="210" height="582" rx="8" fill="white"/>
<g id="Rows_3">
<rect id="Data" x="1611" y="831" width="102" height="78" rx="4" fill="#DDE3E9"/>
<rect id="Data_2" x="1611" y="933" width="102" height="75" rx="4" fill="#AFB9C5"/>
<rect id="Data_3" x="1611" y="1032" width="102" height="75" rx="4" fill="#DDE3E9"/>
<rect id="Data_4" x="1611" y="1230" width="102" height="75" rx="4" fill="#DDE3E9"/>
<rect id="Data_5" x="1611" y="1131" width="102" height="75" rx="4" fill="#C5CFD6"/>
</g>
</g>
<g id="Rows_4">
<g id="Row_9">
<rect id="Container_6" x="858" y="513" width="675" height="141" rx="4" fill="white"/>
<g id="Text Stuff_3" clip-path="url(#clip8_6_2)">
<rect id="Label_5" x="885" y="555.3" width="501" height="21.15" rx="3" fill="#DDE3E9"/>
<rect id="Label_6" x="885" y="590.55" width="336.288" height="21.15" rx="3" fill="#DDE3E9"/>
</g>
<g id="Check_3">
<path id="Background_11" fill-rule="evenodd" clip-rule="evenodd" d="M1460.86 604.5C1472.46 604.5 1481.86 595.098 1481.86 583.5C1481.86 571.902 1472.46 562.5 1460.86 562.5C1449.26 562.5 1439.86 571.902 1439.86 583.5C1439.86 595.098 1449.26 604.5 1460.86 604.5Z" fill="#DDE3E9"/>
<path id="Indicator_3" fill-rule="evenodd" clip-rule="evenodd" d="M1460.86 592.5C1465.83 592.5 1469.86 588.471 1469.86 583.5C1469.86 578.529 1465.83 574.5 1460.86 574.5C1455.89 574.5 1451.86 578.529 1451.86 583.5C1451.86 588.471 1455.89 592.5 1460.86 592.5Z" fill="#F2F2F2"/>
</g>
</g>
<g id="Row_10">
<rect id="Container_7" x="858" y="678" width="675" height="117" rx="4" fill="white"/>
<g id="Text Stuff_4" clip-path="url(#clip9_6_2)">
<rect id="Label_7" x="885" y="713.1" width="501" height="17.55" rx="2.925" fill="#DDE3E9"/>
<rect id="Label_8" x="885" y="742.35" width="336.288" height="17.55" rx="2.925" fill="#DDE3E9"/>
</g>
<g id="Check_4">
<path id="Background_12" fill-rule="evenodd" clip-rule="evenodd" d="M1460.86 757.5C1472.46 757.5 1481.86 748.098 1481.86 736.5C1481.86 724.902 1472.46 715.5 1460.86 715.5C1449.26 715.5 1439.86 724.902 1439.86 736.5C1439.86 748.098 1449.26 757.5 1460.86 757.5Z" fill="#DDE3E9"/>
<path id="Indicator_4" fill-rule="evenodd" clip-rule="evenodd" d="M1460.86 745.5C1465.83 745.5 1469.86 741.471 1469.86 736.5C1469.86 731.529 1465.83 727.5 1460.86 727.5C1455.89 727.5 1451.86 731.529 1451.86 736.5C1451.86 741.471 1455.89 745.5 1460.86 745.5Z" fill="#F2F2F2"/>
</g>
</g>
<g id="Row_11">
<rect id="Container_8" x="858" y="819" width="675" height="117" rx="4" fill="white"/>
<g id="Text Stuff_5" clip-path="url(#clip10_6_2)">
<rect id="Label_9" x="885" y="854.1" width="501" height="17.55" rx="2.925" fill="#DDE3E9"/>
<rect id="Label_10" x="885" y="883.35" width="336.288" height="17.55" rx="2.925" fill="#DDE3E9"/>
</g>
<g id="Check_5">
<path id="Background_13" fill-rule="evenodd" clip-rule="evenodd" d="M1460.86 898.5C1472.46 898.5 1481.86 889.098 1481.86 877.5C1481.86 865.902 1472.46 856.5 1460.86 856.5C1449.26 856.5 1439.86 865.902 1439.86 877.5C1439.86 889.098 1449.26 898.5 1460.86 898.5Z" fill="#DDE3E9"/>
<path id="Indicator_5" fill-rule="evenodd" clip-rule="evenodd" d="M1460.86 886.5C1465.83 886.5 1469.86 882.471 1469.86 877.5C1469.86 872.529 1465.83 868.5 1460.86 868.5C1455.89 868.5 1451.86 872.529 1451.86 877.5C1451.86 882.471 1455.89 886.5 1460.86 886.5Z" fill="#AFB9C5"/>
</g>
</g>
<g id="Row_12">
<rect id="Container_9" x="858" y="1242" width="675" height="117" rx="4" fill="white"/>
<g id="Text Stuff_6" clip-path="url(#clip11_6_2)">
<rect id="Label_11" x="885" y="1277.1" width="501" height="17.55" rx="2.925" fill="#DDE3E9"/>
<rect id="Label_12" x="885" y="1306.35" width="336.288" height="17.55" rx="2.925" fill="#DDE3E9"/>
</g>
<g id="Check_6">
<path id="Background_14" fill-rule="evenodd" clip-rule="evenodd" d="M1460.86 1321.5C1472.46 1321.5 1481.86 1312.1 1481.86 1300.5C1481.86 1288.9 1472.46 1279.5 1460.86 1279.5C1449.26 1279.5 1439.86 1288.9 1439.86 1300.5C1439.86 1312.1 1449.26 1321.5 1460.86 1321.5Z" fill="#DDE3E9"/>
<path id="Indicator_6" fill-rule="evenodd" clip-rule="evenodd" d="M1460.86 1309.5C1465.83 1309.5 1469.86 1305.47 1469.86 1300.5C1469.86 1295.53 1465.83 1291.5 1460.86 1291.5C1455.89 1291.5 1451.86 1295.53 1451.86 1300.5C1451.86 1305.47 1455.89 1309.5 1460.86 1309.5Z" fill="#F2F2F2"/>
</g>
</g>
<g id="Row_13">
<rect id="Container_10" x="858" y="1101" width="675" height="117" rx="4" fill="white"/>
<g id="Text Stuff_7" clip-path="url(#clip12_6_2)">
<rect id="Label_13" x="885" y="1136.1" width="501" height="17.55" rx="2.925" fill="#DDE3E9"/>
<rect id="Label_14" x="885" y="1165.35" width="336.288" height="17.55" rx="2.925" fill="#DDE3E9"/>
</g>
<g id="Check_7">
<path id="Background_15" fill-rule="evenodd" clip-rule="evenodd" d="M1460.86 1180.5C1472.46 1180.5 1481.86 1171.1 1481.86 1159.5C1481.86 1147.9 1472.46 1138.5 1460.86 1138.5C1449.26 1138.5 1439.86 1147.9 1439.86 1159.5C1439.86 1171.1 1449.26 1180.5 1460.86 1180.5Z" fill="#DDE3E9"/>
<path id="Indicator_7" fill-rule="evenodd" clip-rule="evenodd" d="M1460.86 1168.5C1465.83 1168.5 1469.86 1164.47 1469.86 1159.5C1469.86 1154.53 1465.83 1150.5 1460.86 1150.5C1455.89 1150.5 1451.86 1154.53 1451.86 1159.5C1451.86 1164.47 1455.89 1168.5 1460.86 1168.5Z" fill="#F2F2F2"/>
</g>
</g>
<g id="Row_14">
<rect id="Container_11" x="858" y="960" width="675" height="117" rx="4" fill="white"/>
<g id="Text Stuff_8" clip-path="url(#clip13_6_2)">
<rect id="Label_15" x="885" y="995.1" width="501" height="17.55" rx="2.925" fill="#DDE3E9"/>
<rect id="Label_16" x="885" y="1024.35" width="336.288" height="17.55" rx="2.925" fill="#DDE3E9"/>
</g>
<g id="Check_8">
<path id="Background_16" fill-rule="evenodd" clip-rule="evenodd" d="M1460.86 1039.5C1472.46 1039.5 1481.86 1030.1 1481.86 1018.5C1481.86 1006.9 1472.46 997.5 1460.86 997.5C1449.26 997.5 1439.86 1006.9 1439.86 1018.5C1439.86 1030.1 1449.26 1039.5 1460.86 1039.5Z" fill="#DDE3E9"/>
<path id="Indicator_8" fill-rule="evenodd" clip-rule="evenodd" d="M1460.86 1027.5C1465.83 1027.5 1469.86 1023.47 1469.86 1018.5C1469.86 1013.53 1465.83 1009.5 1460.86 1009.5C1455.89 1009.5 1451.86 1013.53 1451.86 1018.5C1451.86 1023.47 1455.89 1027.5 1460.86 1027.5Z" fill="#F2F2F2"/>
</g>
</g>
</g>
</g>
<path id="Fill 1" fill-rule="evenodd" clip-rule="evenodd" d="M2063.96 892.127C2052.12 884.103 2036.39 882 2022.23 882C1966.92 882 1914.93 902.52 1870.02 933.096C1845.41 949.849 1823.4 971.184 1803.97 993.397C1792.75 1006.22 1782.74 1020.09 1775.66 1035.52C1770.88 1045.93 1767.6 1056.78 1765.38 1067.97C1762.67 1081.61 1760.52 1095.53 1759.54 1109.39C1759.16 1114.85 1755.99 1143.82 1765.07 1144.31C1765.01 1145.03 1765 1145.71 1765.06 1146.32C1745.35 1177.14 1733.17 1213.26 1721.87 1247.51C1712.05 1277.31 1703.29 1307.36 1697.61 1338.19C1690.13 1378.78 1685.21 1419.98 1682.87 1461.15C1682.37 1470 1682.03 1478.85 1681.73 1487.71C1681.48 1495.27 1681.22 1502.82 1680.98 1510.38C1680.7 1518.85 1679.21 1528.6 1680.56 1537.02C1681.73 1544.35 1688.07 1543.24 1688.35 1535.95C1688.69 1527.13 1688.64 1518.31 1689.02 1509.49C1689.54 1497.78 1690.06 1486.08 1690.64 1474.38C1694.62 1393.11 1709.58 1313.03 1737.18 1236.25C1748.35 1205.18 1761.15 1175.77 1777.61 1147.03C1792.07 1121.77 1809.47 1097.3 1827.25 1074.52C1844.54 1052.38 1862.51 1030.75 1883.69 1011.99C1900.87 996.767 1919.78 983.506 1939.21 971.167C1963.89 955.495 1988.53 940.203 2015.27 928.173C2029.16 921.92 2043.32 916.322 2057.33 910.321C2059.85 909.242 2062.55 908.195 2064.98 906.945C2073.06 902.775 2070.4 896.495 2063.96 892.127" fill="#A3CCFF"/>
<path id="Fill 20" fill-rule="evenodd" clip-rule="evenodd" d="M1841.45 1176C1863.89 1176 1883.85 1178.91 1904.51 1187.83C1922.36 1195.52 1938.61 1205.71 1954.4 1216.8C1976.61 1232.39 1994.1 1250.54 2006.34 1274.59C2013.65 1288.96 2019.02 1309.29 2014.11 1324.96C2008.32 1343.42 1992.43 1358.82 1971.51 1355.56C1958.57 1353.55 1946.71 1344.99 1936.87 1336.93C1925.11 1327.28 1915.69 1315.69 1907.92 1302.81C1895.23 1281.8 1887.78 1258.05 1877 1236.1C1871.89 1225.68 1866.95 1215.19 1860.83 1205.29C1857.79 1200.38 1854.57 1195.53 1849.97 1191.88C1847.51 1189.93 1837.13 1186.56 1841.1 1182.18C1782.93 1182.95 1731.4 1227.62 1720.23 1282.92C1719.19 1288.08 1718.38 1293.27 1717.52 1298.46C1716.97 1301.73 1717.19 1313.81 1714.27 1315.9C1707.81 1320.52 1710.52 1306.5 1710.8 1304.48C1711.52 1299.26 1712.28 1294.05 1713.08 1288.85C1717.44 1260.54 1730.04 1234.23 1751.05 1214.05C1775.08 1190.97 1807.5 1176 1841.45 1176" fill="#338FFF"/>
<g id="Plant">
<path id="Fill 19" fill-rule="evenodd" clip-rule="evenodd" d="M224.814 1106.21C280.813 1200.16 346.035 1291.12 385.202 1393.84C383.624 1381.73 381.951 1369.64 380.077 1357.56C370.139 1293.54 357.787 1229.98 344.808 1166.5C338.198 1134.18 331.207 1101.98 324.037 1069.78C320.181 1052.49 316.372 1035.18 312.436 1017.91C311.482 1013.72 310.663 1006.41 309.47 999C347.535 1123.91 384.242 1248.91 411.092 1376.83C414.615 1393.61 417.614 1410.37 420.071 1427.1C420.912 1423.28 421.739 1419.47 422.644 1415.66C433.508 1370.04 449.804 1324.78 469.208 1282.12C478.484 1261.72 489.139 1241.77 501.684 1223.18C509.507 1211.59 527.957 1197.81 535.093 1185.94C496.064 1257.53 481.971 1347.09 459.435 1424.92C453.935 1443.91 448.4 1462.87 442.977 1481.87C476.962 1413.71 529.69 1357.71 603 1333.45C514.261 1392.08 461.034 1494.76 425.166 1599.78C425.048 1601.02 424.908 1602.27 424.786 1603.52C435.341 1583.49 448.636 1565.37 466.654 1552.68C505.22 1525.51 548.001 1533.43 585.411 1556.73C556.051 1538.07 502.988 1555.06 478.284 1574.03C460.599 1587.61 445.484 1605.83 432.359 1623.6C429.215 1627.86 424.924 1632.83 420.391 1638.13C414.036 1679.39 403.68 1720.36 389.017 1761C391.437 1749.33 389.688 1730.68 390.359 1721.98C390.432 1721.04 390.491 1720.1 390.563 1719.16C388.334 1728.06 386.181 1736.85 384.108 1745.51C388.229 1728.99 390.469 1711.75 392.218 1694.33C392.668 1686.84 393.107 1679.35 393.571 1671.87C393.424 1657.66 392.839 1643.4 391.849 1629.11C388.34 1615.22 384.41 1602.13 381.169 1591.23C369.476 1551.93 352.333 1514.28 331.233 1479.15C311.981 1447.1 288.937 1418.06 262.334 1391.8C247.993 1377.65 232.984 1364.17 218.187 1350.51C212.836 1345.57 203.272 1333.42 195 1327.09C255.241 1360.3 317.247 1396.23 361.193 1449.74C356.041 1429.96 350.445 1410.45 344.525 1391.34C314.493 1294.36 276.574 1193.86 224.814 1106.21Z" fill="#DDE3E9"/>
<path id="Base" fill-rule="evenodd" clip-rule="evenodd" d="M285 1638C285 1745.7 293.528 1833 408 1833C522.472 1833 531 1745.7 531 1638" fill="#C5CFD6"/>
</g>
<g id="Graph">
<rect id="Value" x="1560" y="252" width="18" height="75" rx="3" fill="#DDE3E9"/>
<rect id="Value_2" x="1602" y="204" width="18" height="123" rx="3" fill="#DDE3E9"/>
<rect id="Value_3" x="1644" y="180" width="18" height="147" rx="3" fill="#DDE3E9"/>
<rect id="Value_4" x="1686" y="204" width="18" height="123" rx="3" fill="#DDE3E9"/>
<rect id="Value_5" x="1728" y="156" width="18" height="171" rx="3" fill="#C5CFD6"/>
</g>
<g id="Pie Chart">
<path id="Value_6" fill-rule="evenodd" clip-rule="evenodd" d="M84 1074.77C84 1041.35 111.006 1014 144 1014V1074.77L102.996 1119C91.332 1108.19 84 1092.32 84 1074.77Z" fill="#F2F2F2"/>
<path id="Value_7" fill-rule="evenodd" clip-rule="evenodd" d="M142.412 1074H203.004C203.004 1089.66 196.615 1104.34 186.514 1115C175.404 1126.67 159.584 1134 142.412 1134C126.595 1134 112.117 1127.67 101.004 1117.67L142.412 1074Z" fill="#AFB9C5"/>
<path id="Value_8" fill-rule="evenodd" clip-rule="evenodd" d="M204 1074C204 1041.01 176.994 1014 144 1014V1074H204ZM114 1014L138 1068L84 1044C89.34 1030 101.331 1019.34 114 1014Z" fill="#C5CFD6"/>
</g>
<g id="Chart">
<path id="Value_9" fill-rule="evenodd" clip-rule="evenodd" d="M2036.3 1101.54C2030.53 1107.66 2022.37 1111.5 2013.29 1111.5C1995.83 1111.5 1981.69 1097.4 1981.69 1080C1981.69 1062.6 1995.83 1048.5 2013.29 1048.5V990C1963.64 990 1923 1030.51 1923 1080C1923 1129.49 1963.64 1170 2013.29 1170C2039.36 1170 2062.93 1159 2079 1141.51L2036.3 1101.54Z" fill="#F2F2F2"/>
<path id="Value_10" fill-rule="evenodd" clip-rule="evenodd" d="M2013 990V1048.5C2030.4 1048.5 2044.5 1062.6 2044.5 1080H2103C2103 1030.51 2062.49 990 2013 990Z" fill="#AFB9C5"/>
<path id="Value_11" fill-rule="evenodd" clip-rule="evenodd" d="M2043.29 1080C2043.29 1090.22 2038.48 1099.31 2031 1105.17L2067.79 1152C2089.2 1135.24 2103 1109.25 2103 1080H2043.29Z" fill="#C5CFD6"/>
</g>
<g id="Chart_2">
<path id="Value_12" fill-rule="evenodd" clip-rule="evenodd" d="M1464.15 274.512C1459.72 279.204 1453.44 282.15 1446.45 282.15C1433.03 282.15 1422.14 271.338 1422.14 258C1422.14 244.662 1433.03 233.85 1446.45 233.85V189C1408.26 189 1377 220.057 1377 258C1377 295.943 1408.26 327 1446.45 327C1466.51 327 1484.64 318.568 1497 305.155L1464.15 274.512Z" fill="#F2F2F2"/>
<path id="Value_13" fill-rule="evenodd" clip-rule="evenodd" d="M1446 189V233.85C1459.34 233.85 1470.15 244.662 1470.15 258H1515C1515 220.057 1483.94 189 1446 189Z" fill="#AFB9C5"/>
<path id="Value_14" fill-rule="evenodd" clip-rule="evenodd" d="M1470.22 258C1470.22 265.666 1466.61 272.48 1461 276.879L1488.59 312C1504.65 299.426 1515 279.936 1515 258H1470.22Z" fill="#C5CFD6"/>
</g>
<g id="Image">
<path id="Fill 35" fill-rule="evenodd" clip-rule="evenodd" d="M372.021 326.959C372.009 326.989 371.997 327.019 371.979 327.055C371.997 327.025 372.021 326.905 372.021 326.959" fill="#C5CFD6"/>
<path id="Fill 37" fill-rule="evenodd" clip-rule="evenodd" d="M371.993 327.004C371.993 327.01 371.987 327.022 371.987 327.034C371.987 327.004 372.041 326.914 371.993 327.004" fill="#C5CFD6"/>
<path id="Fill 39" fill-rule="evenodd" clip-rule="evenodd" d="M372.201 326.497C372.159 326.617 372.105 326.731 372.057 326.851C372.081 326.791 372.105 326.743 372.129 326.683C371.505 328.243 371.901 327.229 372.201 326.497" fill="#C5CFD6"/>
<path id="Fill 41" fill-rule="evenodd" clip-rule="evenodd" d="M372.067 326.858C372.043 326.912 372.019 326.972 371.995 327.026C371.821 327.362 372.067 326.858 372.067 326.858" fill="#C5CFD6"/>
<path id="Fill 45" fill-rule="evenodd" clip-rule="evenodd" d="M371.997 327.006C371.997 327 371.997 327 372.003 326.994C371.997 327 371.997 327 371.997 327.006" fill="#C5CFD6"/>
<path id="Fill 47" fill-rule="evenodd" clip-rule="evenodd" d="M371.969 327.049C371.933 327.121 372.137 326.773 371.969 327.049Z" fill="#C5CFD6"/>
<path id="Fill 49" fill-rule="evenodd" clip-rule="evenodd" d="M371.994 327.006L372.006 326.994C372 327 372 327.006 371.994 327.006" fill="#C5CFD6"/>
<rect id="Photo Background" x="228" y="171" width="285" height="189" rx="4" fill="#DDE3E9"/>
<g id="icons8-night_landscape">
<path id="Mountains" fill-rule="evenodd" clip-rule="evenodd" d="M336 225L252 360H420L336 225Z" fill="#AFB9C5"/>
<path id="Mountains_2" fill-rule="evenodd" clip-rule="evenodd" d="M418.5 261L345 360H492L418.5 261Z" fill="#C5CFD6"/>
</g>
<path id="Sun" fill-rule="evenodd" clip-rule="evenodd" d="M450 261C464.912 261 477 248.912 477 234C477 219.088 464.912 207 450 207C435.088 207 423 219.088 423 234C423 248.912 435.088 261 450 261Z" fill="white"/>
</g>
<g id="Image_2">
<path id="Fill 35_2" fill-rule="evenodd" clip-rule="evenodd" d="M1802.98 1607.96C1802.99 1607.99 1803 1608.02 1803.02 1608.05C1803 1608.02 1802.98 1607.9 1802.98 1607.96" fill="#C5CFD6"/>
<path id="Fill 37_2" fill-rule="evenodd" clip-rule="evenodd" d="M1803.01 1608C1803.01 1608.01 1803.01 1608.02 1803.01 1608.03C1803.01 1608 1802.96 1607.91 1803.01 1608" fill="#C5CFD6"/>
<path id="Fill 39_2" fill-rule="evenodd" clip-rule="evenodd" d="M1802.8 1607.5C1802.84 1607.62 1802.89 1607.73 1802.94 1607.85C1802.92 1607.79 1802.89 1607.74 1802.87 1607.68C1803.49 1609.24 1803.1 1608.23 1802.8 1607.5" fill="#C5CFD6"/>
<path id="Fill 41_2" fill-rule="evenodd" clip-rule="evenodd" d="M1802.93 1607.86C1802.96 1607.91 1802.98 1607.97 1803 1608.03C1803.18 1608.36 1802.93 1607.86 1802.93 1607.86" fill="#C5CFD6"/>
<path id="Fill 45_2" fill-rule="evenodd" clip-rule="evenodd" d="M1803 1608.01C1803 1608 1803 1608 1803 1607.99C1803 1608 1803 1608 1803 1608.01" fill="#C5CFD6"/>
<path id="Fill 47_2" fill-rule="evenodd" clip-rule="evenodd" d="M1803.03 1608.05C1803.07 1608.12 1802.86 1607.77 1803.03 1608.05Z" fill="#C5CFD6"/>
<path id="Fill 49_2" fill-rule="evenodd" clip-rule="evenodd" d="M1803.01 1608.01L1802.99 1607.99C1803 1608 1803 1608.01 1803.01 1608.01" fill="#C5CFD6"/>
<rect id="Photo Background_2" width="142" height="94" rx="4" transform="matrix(-3 0 0 3 2016 1377)" fill="#DDE3E9"/>
<g id="icons8-night_landscape_2">
<path id="Mountains_3" fill-rule="evenodd" clip-rule="evenodd" d="M1857.82 1458L1980.99 1659H1734.66L1857.82 1458Z" fill="#AFB9C5"/>
<path id="Mountains_4" fill-rule="evenodd" clip-rule="evenodd" d="M1730.83 1511.84L1839.72 1659H1621.95L1730.83 1511.84Z" fill="#C5CFD6"/>
</g>
<path id="Sun_2" fill-rule="evenodd" clip-rule="evenodd" d="M1684.5 1512C1662.13 1512 1644 1493.87 1644 1471.5C1644 1449.13 1662.13 1431 1684.5 1431C1706.87 1431 1725 1449.13 1725 1471.5C1725 1493.87 1706.87 1512 1684.5 1512Z" fill="white"/>
</g>
</g>
<defs>
<clipPath id="clip0_6_2">
<rect width="73" height="21.6" fill="white" transform="translate(573 360.6) scale(3)"/>
</clipPath>
<clipPath id="clip1_6_2">
<rect width="73" height="16.8" fill="white" transform="translate(573 535.8) scale(3)"/>
</clipPath>
<clipPath id="clip2_6_2">
<rect width="73" height="16.8" fill="white" transform="translate(573 685.8) scale(3)"/>
</clipPath>
<clipPath id="clip3_6_2">
<rect width="73" height="16.8" fill="white" transform="translate(573 835.8) scale(3)"/>
</clipPath>
<clipPath id="clip4_6_2">
<rect width="73" height="21.6" fill="white" transform="translate(681 438.6) scale(3)"/>
</clipPath>
<clipPath id="clip5_6_2">
<rect width="73" height="16.8" fill="white" transform="translate(771 613.8) scale(3)"/>
</clipPath>
<clipPath id="clip6_6_2">
<rect width="73" height="16.8" fill="white" transform="translate(681 763.8) scale(3)"/>
</clipPath>
<clipPath id="clip7_6_2">
<rect width="73" height="16.8" fill="white" transform="translate(771 913.8) scale(3)"/>
</clipPath>
<clipPath id="clip8_6_2">
<rect width="167" height="18.8" fill="white" transform="translate(885 555.3) scale(3)"/>
</clipPath>
<clipPath id="clip9_6_2">
<rect width="167" height="15.6" fill="white" transform="translate(885 713.1) scale(3)"/>
</clipPath>
<clipPath id="clip10_6_2">
<rect width="167" height="15.6" fill="white" transform="translate(885 854.1) scale(3)"/>
</clipPath>
<clipPath id="clip11_6_2">
<rect width="167" height="15.6" fill="white" transform="translate(885 1277.1) scale(3)"/>
</clipPath>
<clipPath id="clip12_6_2">
<rect width="167" height="15.6" fill="white" transform="translate(885 1136.1) scale(3)"/>
</clipPath>
<clipPath id="clip13_6_2">
<rect width="167" height="15.6" fill="white" transform="translate(885 995.1) scale(3)"/>
</clipPath>
</defs>
</svg>
