<svg width="525" height="628" viewBox="0 0 525 628" fill="none" xmlns="http://www.w3.org/2000/svg">
<g clip-path="url(#clip0_101_85)">
<path d="M420.808 216.843H369.046V199.8C369.046 171.232 392.24 148.038 420.808 148.038H420.808V216.843V216.843Z" fill="#3D4856"/>
<path d="M409.335 185.027L418.235 225.056L366.083 216.397L387.335 178.538L409.335 185.027Z" fill="#A0616A"/>
<path opacity="0.1" d="M409.335 185.027L418.235 225.056L366.083 216.397L387.335 178.538L409.335 185.027Z" fill="black"/>
<path d="M359.335 344.538H409.335V270.538H359.335V344.538Z" fill="#A0616A"/>
<path d="M441.835 405.038L430.835 464.038C430.835 464.038 437.835 505.038 416.835 547.038L402.835 590.038L381.835 587.038C381.835 587.038 394.835 555.038 394.835 541.038C394.835 527.038 397.835 473.038 397.835 473.038L396.335 411.42L441.835 405.038Z" fill="#3D4856"/>
<path d="M378.835 586.038C378.835 586.038 402.835 577.038 404.835 590.038L403.835 596.038C403.835 596.038 412.835 623.038 399.835 625.038C386.835 627.038 374.835 630.038 373.835 624.038C372.835 618.038 372.851 610.549 375.343 605.294C377.835 600.038 378.835 586.038 378.835 586.038Z" fill="#3D4856"/>
<path d="M366.134 395.886L360.292 455.618C360.292 455.618 342.166 493.054 350.657 539.237L352.146 584.434L373.152 587.393C373.152 587.393 369.564 553.04 373.457 539.592C377.351 526.144 389.487 473.44 389.487 473.44L408.065 414.67L366.134 395.886V395.886Z" fill="#3D4856"/>
<path d="M376.311 587.267C376.311 587.267 355.761 571.947 350.225 583.878L349.516 589.919C349.516 589.919 333.363 613.351 345.294 618.888C357.224 624.424 367.917 630.643 370.546 625.158C373.175 619.673 375.243 612.474 374.311 606.733C373.378 600.992 376.311 587.267 376.311 587.267V587.267Z" fill="#3D4856"/>
<path d="M429.835 310.538C453.354 332.486 455.099 367.212 441.335 408.538C441.335 408.538 397.335 438.538 365.335 400.538L349.335 323.538L429.835 310.538Z" fill="#3D4856"/>
<path d="M390.335 203.538L415.335 207.538L413.335 270.538L441.335 326.538L405.335 344.538C405.335 344.538 377.335 291.538 372.335 258.538C367.335 225.538 370.335 201.538 370.335 201.538L390.335 203.538Z" fill="#338FFF"/>
<path d="M371.335 205.538L346.335 209.538L348.335 272.538L342.335 330.538L356.335 346.538C356.335 346.538 384.335 293.538 389.335 260.538C394.335 227.538 391.335 203.538 391.335 203.538L371.335 205.538Z" fill="#338FFF"/>
<path d="M401.335 207.038L406.835 205.538C406.835 205.538 426.335 203.038 429.335 211.038C432.335 219.038 431.335 266.038 431.335 266.038C431.335 266.038 436.495 323.723 416.415 324.381C396.335 325.038 400.335 277.038 400.335 277.038L401.335 207.038Z" fill="#338FFF"/>
<path d="M400.608 196.012C414.902 196.012 426.489 184.425 426.489 170.131C426.489 155.838 414.902 144.25 400.608 144.25C386.315 144.25 374.727 155.838 374.727 170.131C374.727 184.425 386.315 196.012 400.608 196.012Z" fill="#A0616A"/>
<path d="M368.335 209.038L362.835 207.538C362.835 207.538 343.335 205.038 340.335 213.038C337.335 221.038 338.335 268.038 338.335 268.038C338.335 268.038 333.175 325.723 353.255 326.381C373.335 327.038 369.335 279.038 369.335 279.038L368.335 209.038Z" fill="#338FFF"/>
<path d="M385.658 205.75C380.106 204.342 373.811 210.272 371.597 218.999C370.664 222.473 370.577 226.12 371.343 229.634L368.958 239.555L368.782 239.546L349.964 283.894C345.588 294.206 346.051 306.044 351.631 315.756C354.951 321.534 359.309 325.418 364.426 321.453C372.917 314.874 378.463 277.204 380.995 255.565L386.85 233.569C389.201 230.844 390.864 227.597 391.701 224.097C393.916 215.373 391.21 207.159 385.658 205.75V205.75Z" fill="#A0616A"/>
<path d="M351.06 191.069C352.376 187.066 354.975 183.562 356.138 179.512C357.681 174.134 360.968 186.064 361.289 180.479C361.899 169.862 378.102 142.552 387.352 137.307C396.603 132.061 401.915 133.642 411.339 138.569C411.339 138.569 415.914 138.86 421.609 141.672C427.304 144.484 432.431 148.987 434.646 154.939C436.402 159.658 436.207 164.839 436.794 169.839C438.429 183.769 446.237 197.017 444.561 210.942C444.038 215.287 442.387 219.779 438.835 222.335C435.282 224.89 429.544 224.612 427.205 220.913C426.408 219.651 426.07 218.154 425.386 216.826C424.703 215.499 423.467 214.261 421.974 214.302C419.731 214.364 418.589 217.375 419.473 219.438C420.358 221.501 422.437 222.746 424.389 223.854C419.74 225.945 413.973 225.294 409.907 222.218C405.842 219.143 403.646 213.77 404.395 208.727C405.449 201.621 415.801 203.092 417.021 196.012C417.908 190.859 421.026 182.235 420.177 177.075C419.328 171.915 415.249 178.163 419.546 175.181C414.819 177.46 404.708 161.871 399.76 160.125C394.812 158.379 390.616 154.599 388.366 149.858C383.117 157.467 378.501 155.4 376.621 164.45C374.741 173.5 376.479 194.06 384.219 199.112C381.122 201.226 378.652 204.248 377.199 207.705C376.376 209.663 375.842 211.805 374.475 213.432C371.866 216.538 367.046 216.727 363.205 215.421C358.442 213.801 354.37 210.245 352.125 205.743C349.879 201.241 349.488 195.848 351.06 191.069L351.06 191.069Z" fill="#3D4856"/>
<path d="M0 626.136C0 626.796 0.53003 627.326 1.19006 627.326H523.48C524.14 627.326 524.67 626.796 524.67 626.136C524.67 625.476 524.14 624.946 523.48 624.946H1.19006C0.53003 624.946 0 625.476 0 626.136Z" fill="#3F3D56"/>
<path d="M340.038 0.999817H134.369C111.046 0.999817 92.1389 19.9068 92.1389 43.2298V583.663C92.1389 606.986 111.046 625.893 134.369 625.893H340.038C363.361 625.893 382.268 606.986 382.268 583.663V43.2298C382.268 19.9068 363.361 0.999817 340.038 0.999817H340.038Z" fill="white"/>
<path d="M340.038 626.892H134.369C110.532 626.892 91.1389 607.5 91.1389 583.663V43.23C91.1389 19.3931 110.532 0 134.369 0H340.038C363.875 0 383.268 19.3931 383.268 43.23V583.663C383.268 607.5 363.875 626.892 340.038 626.892H340.038ZM134.369 2C111.635 2 93.1389 20.4956 93.1389 43.23V583.663C93.1389 606.397 111.635 624.892 134.369 624.892H340.038C362.772 624.892 381.268 606.397 381.268 583.663V43.23C381.268 20.4956 362.772 2 340.038 2H134.369Z" fill="#3F3D56"/>
<path d="M75.1437 94.5664C73.3381 94.5664 71.8698 96.0347 71.8698 97.8404V124.032C71.8698 125.837 73.3381 127.306 75.1437 127.306C76.9493 127.306 78.4176 125.837 78.4176 124.032V97.8404C78.4176 96.0347 76.9493 94.5664 75.1437 94.5664Z" fill="#3F3D56"/>
<path d="M354.936 87.4612H272.268C268.761 87.4612 265.909 84.6085 265.909 81.1022C265.909 77.5958 268.761 74.7431 272.268 74.7431H354.936C358.442 74.7431 361.295 77.5958 361.295 81.1022C361.295 84.6085 358.442 87.4612 354.936 87.4612Z" fill="#E6E6E6"/>
<path d="M277.382 137.469H197.025C194.999 137.469 193.351 135.82 193.351 133.794C193.351 131.768 194.999 130.121 197.025 130.121H277.382C279.408 130.121 281.056 131.768 281.056 133.794C281.056 135.82 279.408 137.469 277.382 137.469V137.469Z" fill="#338FFF"/>
<path d="M78.3223 155.602C114.165 155.602 143.221 127.158 143.221 92.07C143.221 56.9825 114.165 28.5385 78.3223 28.5385C42.4796 28.5385 13.4233 56.9825 13.4233 92.07C13.4233 127.158 42.4796 155.602 78.3223 155.602Z" fill="#338FFF"/>
<path d="M100.349 60.0243C91.709 75.757 83.0689 91.4897 74.4288 107.222C68.9222 97.4929 63.4456 87.7462 57.9254 78.0243C56.019 74.6667 50.8334 77.6866 52.7446 81.0526C59.1437 92.3225 65.4766 103.63 71.8757 114.9C72.9698 116.827 75.9736 116.871 77.0565 114.9C86.5477 97.6174 96.0388 80.335 105.53 63.0526C107.39 59.6661 102.21 56.6352 100.349 60.0243H100.349Z" fill="white"/>
<path d="M163.805 14.6578H117.928C117.757 14.6578 117.618 14.7967 117.618 14.968V20.3089C117.618 20.4802 117.757 20.6191 117.928 20.6191H163.805C163.977 20.6191 164.116 20.4802 164.116 20.3089V14.968C164.116 14.7967 163.977 14.6578 163.805 14.6578Z" fill="#E6E6E6"/>
<path d="M318.336 20.6191C320.97 20.6191 323.105 18.484 323.105 15.8501C323.105 13.2162 320.97 11.0811 318.336 11.0811C315.702 11.0811 313.567 13.2162 313.567 15.8501C313.567 18.484 315.702 20.6191 318.336 20.6191Z" fill="#E6E6E6"/>
<path d="M331.451 20.6191C334.085 20.6191 336.22 18.484 336.22 15.8501C336.22 13.2162 334.085 11.0811 331.451 11.0811C328.817 11.0811 326.682 13.2162 326.682 15.8501C326.682 18.484 328.817 20.6191 331.451 20.6191Z" fill="#E6E6E6"/>
<path d="M344.566 20.6191C347.2 20.6191 349.335 18.484 349.335 15.8501C349.335 13.2162 347.2 11.0811 344.566 11.0811C341.932 11.0811 339.797 13.2162 339.797 15.8501C339.797 18.484 341.932 20.6191 344.566 20.6191Z" fill="#E6E6E6"/>
<path d="M133.868 157.136C133.868 157.796 134.398 158.326 135.058 158.326H339.348C340.008 158.326 340.538 157.796 340.538 157.136C340.538 156.476 340.008 155.946 339.348 155.946H135.058C134.398 155.946 133.868 156.476 133.868 157.136V157.136Z" fill="#3F3D56"/>
<path d="M319.758 250.667H197.16C195.134 250.667 193.485 249.018 193.485 246.992C193.485 244.966 195.134 243.319 197.16 243.319H319.758C321.784 243.319 323.431 244.966 323.431 246.992C323.431 249.018 321.784 250.667 319.758 250.667Z" fill="#338FFF"/>
<path d="M319.758 303.667H197.16C195.134 303.667 193.485 302.018 193.485 299.992C193.485 297.966 195.134 296.319 197.16 296.319H319.758C321.784 296.319 323.431 297.966 323.431 299.992C323.431 302.018 321.784 303.667 319.758 303.667V303.667Z" fill="#338FFF"/>
<path d="M319.758 356.667H197.16C195.134 356.667 193.485 355.018 193.485 352.992C193.485 350.966 195.134 349.319 197.16 349.319H319.758C321.784 349.319 323.431 350.966 323.431 352.992C323.431 355.018 321.784 356.667 319.758 356.667V356.667Z" fill="#338FFF"/>
<path d="M159.975 255.538C164.946 255.538 168.975 251.509 168.975 246.538C168.975 241.568 164.946 237.538 159.975 237.538C155.005 237.538 150.975 241.568 150.975 246.538C150.975 251.509 155.005 255.538 159.975 255.538Z" fill="#338FFF"/>
<path d="M158.975 261.538V259.538C166.419 259.538 172.475 253.482 172.475 246.038C172.475 238.595 166.419 232.538 158.975 232.538V230.538C167.522 230.538 174.475 237.492 174.475 246.038C174.475 254.585 167.522 261.538 158.975 261.538Z" fill="#3F3D56"/>
<path d="M159.975 308.538C164.946 308.538 168.975 304.509 168.975 299.538C168.975 294.568 164.946 290.538 159.975 290.538C155.005 290.538 150.975 294.568 150.975 299.538C150.975 304.509 155.005 308.538 159.975 308.538Z" fill="#338FFF"/>
<path d="M158.975 314.538V312.538C166.419 312.538 172.475 306.483 172.475 299.038C172.475 291.595 166.419 285.538 158.975 285.538V283.538C167.522 283.538 174.475 290.492 174.475 299.038C174.475 307.585 167.522 314.538 158.975 314.538Z" fill="#3F3D56"/>
<path d="M159.975 361.538C164.946 361.538 168.975 357.509 168.975 352.538C168.975 347.568 164.946 343.538 159.975 343.538C155.005 343.538 150.975 347.568 150.975 352.538C150.975 357.509 155.005 361.538 159.975 361.538Z" fill="#338FFF"/>
<path d="M158.975 367.538V365.538C166.419 365.538 172.475 359.483 172.475 352.038C172.475 344.594 166.419 338.538 158.975 338.538V336.538C167.522 336.538 174.475 343.492 174.475 352.038C174.475 360.585 167.522 367.538 158.975 367.538Z" fill="#3F3D56"/>
<path d="M384.012 203.75C389.564 202.342 395.859 208.272 398.073 216.999C399.006 220.473 399.093 224.12 398.327 227.634L400.713 237.555L400.888 237.546L419.706 281.894C424.082 292.206 423.619 304.044 418.039 313.756C414.719 319.534 410.361 323.418 405.244 319.453C396.753 312.874 391.207 275.204 388.675 253.565L382.82 231.569C380.469 228.844 378.806 225.597 377.969 222.097C375.754 213.373 378.46 205.159 384.012 203.75V203.75Z" fill="#A0616A"/>
<path d="M405.389 228.053L384.335 243.019L394.862 309.313L408.065 326.388L423.444 321.069L427.941 289.73L422.649 259.423L405.389 228.053Z" fill="#338FFF"/>
</g>
<defs>
<clipPath id="clip0_101_85">
<rect width="524.67" height="627.583" fill="white"/>
</clipPath>
</defs>
</svg>
