<svg width="519" height="506" viewBox="0 0 519 506" fill="none" xmlns="http://www.w3.org/2000/svg">
<g clip-path="url(#clip0_101_344)">
<path d="M200.387 460.872L186.871 473.341L197.612 455.28C189.15 439.9 175.31 426.609 175.31 426.609C175.31 426.609 146.596 454.178 146.596 475.85C146.596 497.521 159.452 505.088 175.31 505.088C191.168 505.088 204.023 497.521 204.023 475.85C204.023 471.026 202.598 465.911 200.387 460.872Z" fill="#F2F2F2"/>
<path d="M183.395 474.016V475.084C183.332 487.501 181.242 497.189 177.142 504.011C177.084 504.111 177.021 504.206 176.963 504.307L176.504 504.027L176.066 503.752C180.614 496.385 182.224 485.973 182.282 475.143C182.287 474.794 182.292 474.439 182.287 474.085C182.271 469.5 181.992 464.862 181.543 460.357C181.511 460.008 181.475 459.654 181.438 459.299C180.815 453.355 179.918 447.676 179 442.742C178.936 442.393 178.868 442.044 178.799 441.7C177.211 433.356 175.591 427.311 175.222 425.973C175.179 425.809 175.153 425.719 175.148 425.698L175.649 425.555L175.654 425.55L176.161 425.407C176.166 425.429 176.256 425.73 176.404 426.291C176.968 428.385 178.435 434.069 179.876 441.568C179.939 441.906 180.008 442.256 180.071 442.605C180.82 446.608 181.554 451.081 182.134 455.777C182.282 456.957 182.414 458.12 182.53 459.268C182.572 459.622 182.609 459.976 182.641 460.325C183.126 465.196 183.378 469.759 183.395 474.016Z" fill="white"/>
<path d="M179.876 441.568C179.522 441.616 179.163 441.663 178.799 441.7C177.81 441.802 176.817 441.853 175.823 441.854C171.587 441.859 167.404 440.912 163.581 439.083C163.359 439.363 163.138 439.643 162.911 439.929C166.932 441.896 171.349 442.916 175.823 442.911C176.884 442.911 177.945 442.854 179 442.742C179.359 442.705 179.717 442.657 180.071 442.605C182.989 442.185 185.827 441.324 188.487 440.05C188.26 439.759 188.039 439.474 187.822 439.194C185.305 440.373 182.627 441.173 179.876 441.568V441.568Z" fill="white"/>
<path d="M182.53 459.268C182.166 459.289 181.802 459.299 181.438 459.299C181.327 459.305 181.211 459.305 181.1 459.305C176.51 459.305 171.988 458.192 167.919 456.063C163.851 453.933 160.357 450.849 157.734 447.073C157.523 447.385 157.312 447.697 157.106 448.014C159.839 451.835 163.441 454.947 167.614 457.095C171.786 459.242 176.409 460.362 181.1 460.362C181.248 460.362 181.395 460.362 181.543 460.357C181.913 460.352 182.277 460.341 182.641 460.325C188.275 460.036 193.706 458.127 198.286 454.825C198.117 454.513 197.949 454.201 197.774 453.889C193.323 457.13 188.025 459 182.53 459.268V459.268Z" fill="white"/>
<path d="M183.395 474.016C183.026 474.048 182.656 474.069 182.287 474.085C181.891 474.101 181.496 474.111 181.1 474.111C174.932 474.104 168.932 472.095 163.999 468.385C159.066 464.675 155.465 459.463 153.735 453.53C153.497 453.958 153.26 454.381 153.033 454.81C154.982 460.729 158.743 465.882 163.782 469.537C168.82 473.192 174.88 475.162 181.1 475.169C181.496 475.169 181.891 475.164 182.282 475.143C182.656 475.132 183.026 475.111 183.395 475.084C190.856 474.5 197.816 471.095 202.866 465.56C202.756 465.169 202.629 464.783 202.502 464.392C197.624 469.968 190.771 473.42 183.395 474.016V474.016Z" fill="white"/>
<path d="M518.249 27.0975H0.751177C0.552426 27.0968 0.362063 27.0172 0.221767 26.8761C0.0814706 26.735 0.00268555 26.544 0.00268555 26.3448C0.00268555 26.1456 0.0814706 25.9545 0.221767 25.8135C0.362063 25.6724 0.552426 25.5928 0.751177 25.5921H518.249C518.448 25.5928 518.638 25.6724 518.778 25.8135C518.919 25.9545 518.998 26.1456 518.998 26.3448C518.998 26.544 518.919 26.735 518.778 26.8761C518.638 27.0172 518.448 27.0968 518.249 27.0975Z" fill="#CACACA"/>
<path d="M17.6565 16.5596C22.2194 16.5596 25.9184 12.8526 25.9184 8.27979C25.9184 3.70699 22.2194 0 17.6565 0C13.0935 0 9.39453 3.70699 9.39453 8.27979C9.39453 12.8526 13.0935 16.5596 17.6565 16.5596Z" fill="#338FFF"/>
<path d="M46.1977 16.5596C50.7607 16.5596 54.4597 12.8526 54.4597 8.27979C54.4597 3.70699 50.7607 0 46.1977 0C41.6348 0 37.9358 3.70699 37.9358 8.27979C37.9358 12.8526 41.6348 16.5596 46.1977 16.5596Z" fill="#338FFF"/>
<path d="M74.739 16.5596C79.3019 16.5596 83.0009 12.8526 83.0009 8.27979C83.0009 3.70699 79.3019 0 74.739 0C70.176 0 66.4771 3.70699 66.4771 8.27979C66.4771 12.8526 70.176 16.5596 74.739 16.5596Z" fill="#338FFF"/>
<path d="M501.148 5.06447H480.869C480.472 5.06309 480.091 4.90388 479.81 4.62171C479.53 4.33954 479.372 3.95742 479.372 3.55906C479.372 3.16069 479.53 2.77857 479.81 2.4964C480.091 2.21423 480.472 2.05502 480.869 2.05364H501.148C501.346 2.05296 501.542 2.09139 501.725 2.16674C501.908 2.24208 502.074 2.35287 502.214 2.49273C502.354 2.63258 502.465 2.79877 502.541 2.98175C502.617 3.16474 502.656 3.36092 502.656 3.55906C502.656 3.75719 502.617 3.95337 502.541 4.13636C502.465 4.31934 502.354 4.48553 502.214 4.62538C502.074 4.76524 501.908 4.87603 501.725 4.95137C501.542 5.02672 501.346 5.06515 501.148 5.06447Z" fill="#338FFF"/>
<path d="M501.148 10.7098H480.869C480.472 10.7084 480.091 10.5492 479.81 10.267C479.53 9.98485 479.372 9.60273 479.372 9.20436C479.372 8.806 479.53 8.42388 479.81 8.14171C480.091 7.85954 480.472 7.70033 480.869 7.69895H501.148C501.346 7.69827 501.542 7.7367 501.725 7.81205C501.908 7.88739 502.074 7.99818 502.214 8.13804C502.354 8.27789 502.465 8.44408 502.541 8.62706C502.617 8.81005 502.656 9.00623 502.656 9.20436C502.656 9.4025 502.617 9.59868 502.541 9.78167C502.465 9.96465 502.354 10.1308 502.214 10.2707C502.074 10.4106 501.908 10.5213 501.725 10.5967C501.542 10.672 501.346 10.7105 501.148 10.7098Z" fill="#338FFF"/>
<path d="M501.148 16.3551H480.869C480.472 16.3537 480.091 16.1945 479.81 15.9123C479.53 15.6302 479.372 15.2481 479.372 14.8497C479.372 14.4513 479.53 14.0692 479.81 13.787C480.091 13.5049 480.472 13.3457 480.869 13.3443H501.148C501.346 13.3436 501.542 13.382 501.725 13.4574C501.908 13.5327 502.074 13.6435 502.214 13.7834C502.354 13.9232 502.465 14.0894 502.541 14.2724C502.617 14.4554 502.656 14.6516 502.656 14.8497C502.656 15.0478 502.617 15.244 502.541 15.427C502.465 15.61 502.354 15.7762 502.214 15.916C502.074 16.0559 501.908 16.1667 501.725 16.242C501.542 16.3174 501.346 16.3558 501.148 16.3551Z" fill="#338FFF"/>
<path d="M489.832 61.1377H15.5901V312.941H489.832V61.1377Z" fill="#F0F0F0"/>
<path d="M489.832 108.271V105.802H397.516V61.1377H395.052V105.802H302.735V61.1377H300.271V105.802H207.955V61.1377H205.491V105.802H113.175V61.1377H110.711V105.802H15.5901V108.271H110.711V157.613H15.5901V160.083H110.711V209.425H15.5901V211.894H110.711V261.228H15.5901V263.697H110.711V312.941H113.175V263.697H205.491V312.941H207.955V263.697H300.271V312.941H302.735V263.697H395.052V312.941H397.516V263.697H489.832V261.228H397.516V211.894H489.832V209.425H397.516V160.083H489.832V157.613H397.516V108.271L489.832 108.271ZM205.491 261.228H113.175V211.894H205.491V261.228ZM205.491 209.425H113.175V160.083H205.491V209.425ZM205.491 157.613H113.175V108.271H205.491V157.613ZM300.271 261.228H207.955V211.895H300.271V261.228ZM300.271 209.425H207.955V160.083H300.271V209.425ZM300.271 157.614H207.955V108.271H300.271V157.614ZM395.052 261.228H302.735V211.895H395.052V261.228ZM395.052 209.425H302.735V160.083H395.052V209.425ZM395.052 157.614H302.735V108.271H395.052V157.614Z" fill="white"/>
<path d="M163.266 120.271H131.539V151.053H163.266V120.271Z" fill="#CACACA"/>
<path d="M455.367 219.943H423.64V250.725H455.367V219.943Z" fill="#CACACA"/>
<path d="M173.123 271.126H141.396V301.908H173.123V271.126Z" fill="#CACACA"/>
<path d="M182.499 114.56H150.772V145.342H182.499V114.56Z" fill="#338FFF"/>
<path d="M331.642 242.515L369.291 208.898L380.398 214.413L335.243 261.877L331.642 242.515Z" fill="#FFB6B6"/>
<path d="M374.246 220.452C379.195 220.452 383.206 216.432 383.206 211.472C383.206 206.513 379.195 202.493 374.246 202.493C369.298 202.493 365.286 206.513 365.286 211.472C365.286 216.432 369.298 220.452 374.246 220.452Z" fill="#FFB6B6"/>
<path d="M296.4 495.539H287.491L283.253 461.103L296.401 461.104L296.4 495.539Z" fill="#FFB6B6"/>
<path d="M298.672 504.193L269.947 504.192V503.828C269.947 500.856 271.125 498.007 273.222 495.905C275.319 493.804 278.162 492.624 281.128 492.623H281.128L298.673 492.624L298.672 504.193Z" fill="#2F2E41"/>
<path d="M264.144 495.539H255.235L250.997 461.103L264.145 461.104L264.144 495.539Z" fill="#FFB6B6"/>
<path d="M266.416 504.193L237.69 504.192V503.828C237.691 500.856 238.869 498.007 240.965 495.905C243.062 493.804 245.906 492.624 248.871 492.623H248.872L266.416 492.624L266.416 504.193Z" fill="#2F2E41"/>
<path d="M303.882 298.693C303.882 298.693 326.283 296.897 319.115 336.407C311.946 375.917 297.099 483.995 297.099 483.995L283.637 485.85L275.685 341.675L269.668 485.85L252.548 483.995L235.785 329.224C235.785 329.224 230.403 316.779 235.782 308.185C241.161 299.591 303.882 298.693 303.882 298.693Z" fill="#2F2E41"/>
<path d="M289.546 200.817L295.765 197.478C295.765 197.478 311.088 196.168 317.341 214.206L333.926 239.309L360.806 215.962L372.454 224.044L338.577 264.563L324.491 266.367L294.026 226.857L289.546 200.817Z" fill="#338FFF"/>
<path d="M266.979 127.963C241.427 127.963 234.274 156.093 234.274 171.963C234.274 187.832 248.916 185.432 266.979 185.432C274.731 185.432 281.849 185.871 287.455 185.12L290.15 178.523L292.32 183.99C296.921 182.296 299.683 178.852 299.683 171.963C299.683 156.093 293.411 127.963 266.979 127.963Z" fill="#2F2E41"/>
<path d="M266.869 185.405C279.023 185.405 288.876 175.531 288.876 163.351C288.876 151.17 279.023 141.296 266.869 141.296C254.715 141.296 244.862 151.17 244.862 163.351C244.862 175.531 254.715 185.405 266.869 185.405Z" fill="#FFB6B6"/>
<path d="M241.442 161.187H250.146L253.986 150.412L254.754 161.187H258.914L261.154 154.902L261.602 161.187H292.515C292.515 154.995 290.061 149.057 285.692 144.679C281.323 140.3 275.397 137.841 269.219 137.841H264.738C258.56 137.841 252.634 140.3 248.265 144.679C243.897 149.057 241.442 154.995 241.442 161.187Z" fill="#2F2E41"/>
<path d="M388.583 177.416H356.855V208.198H388.583V177.416Z" fill="#338FFF"/>
<path d="M310.845 290.568C307.467 290.612 297.289 230.091 297.289 230.091L295.765 197.478L284.645 197.103V196.37C284.645 194.898 284.061 193.486 283.023 192.445C281.984 191.404 280.575 190.82 279.106 190.82H257.927C256.52 190.82 255.166 191.358 254.14 192.323C253.115 193.289 252.495 194.61 252.406 196.017L243.685 195.723L228.582 243.812C228.582 243.812 242.499 288.494 235.782 308.185C235.782 308.185 301.225 313.817 313.754 301.316C313.754 301.316 314.224 290.524 310.845 290.568Z" fill="#338FFF"/>
<path d="M247.433 201.715L243.685 195.723C243.685 195.723 231.49 192.702 226.47 200.8C221.449 208.898 206.692 252.778 206.692 252.778L221.924 258.166L239.209 233.88L247.433 201.715Z" fill="#338FFF"/>
<path d="M285.541 233.089H253.814V263.871H285.541V233.089Z" fill="#6C63FF"/>
<path d="M229.471 244.215L218.434 243.044C217.737 244.535 217.387 246.164 217.411 247.81C217.435 249.455 217.833 251.074 218.573 252.543C219.313 254.012 220.378 255.293 221.685 256.289C222.992 257.285 224.508 257.97 226.119 258.292L269.794 267.028L265.238 252.967L229.471 244.215Z" fill="#FFB6B6"/>
<path d="M269.925 267.19C274.874 267.19 278.885 263.169 278.885 258.21C278.885 253.251 274.874 249.231 269.925 249.231C264.977 249.231 260.965 253.251 260.965 258.21C260.965 263.169 264.977 267.19 269.925 267.19Z" fill="#FFB6B6"/>
<path d="M258.74 267.463L225.467 259.843C223.056 259.285 220.83 258.111 219.004 256.437C217.178 254.764 215.814 252.646 215.044 250.289L213.699 246.133L222.335 239.323L261.896 250.404L258.74 267.463Z" fill="#338FFF"/>
<path d="M445.712 506H104.331C104.093 506 103.865 505.905 103.697 505.737C103.529 505.569 103.435 505.34 103.435 505.102C103.435 504.864 103.529 504.636 103.697 504.467C103.865 504.299 104.093 504.204 104.331 504.204H445.712C445.95 504.204 446.178 504.299 446.346 504.467C446.514 504.636 446.608 504.864 446.608 505.102C446.608 505.34 446.514 505.569 446.346 505.737C446.178 505.905 445.95 506 445.712 506Z" fill="#CACACA"/>
</g>
<defs>
<clipPath id="clip0_101_344">
<rect width="519" height="506" fill="white"/>
</clipPath>
</defs>
</svg>
