<svg width="1144" height="712" viewBox="0 0 1144 712" fill="none" xmlns="http://www.w3.org/2000/svg">
<path fill-rule="evenodd" clip-rule="evenodd" d="M431.144 509.448C437.32 443.992 768.692 317.655 830.21 379.654C891.728 441.652 876.157 572.059 747.238 601.854C618.319 631.65 424.968 574.904 431.144 509.448Z" fill="#A3CCFF"/>
<path fill-rule="evenodd" clip-rule="evenodd" d="M764 201C793.271 201 817 177.271 817 148C817 118.729 793.271 95 764 95C734.729 95 711 118.729 711 148C711 177.271 734.729 201 764 201Z" fill="#F2F2F2"/>
<path fill-rule="evenodd" clip-rule="evenodd" d="M764 109C765.657 109 767 107.657 767 106C767 104.343 765.657 103 764 103C762.343 103 761 104.343 761 106C761 107.657 762.343 109 764 109Z" fill="black" fill-opacity="0.1"/>
<path fill-rule="evenodd" clip-rule="evenodd" d="M722 151C723.657 151 725 149.657 725 148C725 146.343 723.657 145 722 145C720.343 145 719 146.343 719 148C719 149.657 720.343 151 722 151Z" fill="black" fill-opacity="0.1"/>
<path fill-rule="evenodd" clip-rule="evenodd" d="M806 151C807.657 151 809 149.657 809 148C809 146.343 807.657 145 806 145C804.343 145 803 146.343 803 148C803 149.657 804.343 151 806 151Z" fill="black" fill-opacity="0.1"/>
<path fill-rule="evenodd" clip-rule="evenodd" d="M764 193C765.657 193 767 191.657 767 190C767 188.343 765.657 187 764 187C762.343 187 761 188.343 761 190C761 191.657 762.343 193 764 193Z" fill="black" fill-opacity="0.1"/>
<path fill-rule="evenodd" clip-rule="evenodd" d="M764 112L766 147H762L764 112Z" fill="#AFB9C5"/>
<path fill-rule="evenodd" clip-rule="evenodd" d="M781.698 165.699L763.314 150.142L766.142 147.314L781.698 165.699Z" fill="#AFB9C5"/>
<path fill-rule="evenodd" clip-rule="evenodd" d="M764 152C766.209 152 768 150.209 768 148C768 145.791 766.209 144 764 144C761.791 144 760 145.791 760 148C760 150.209 761.791 152 764 152Z" fill="#C5CFD6"/>
<g opacity="0.345889" clip-path="url(#clip0_13_420)">
<path fill-rule="evenodd" clip-rule="evenodd" d="M894.775 428.632C882.385 349.317 217.598 196.231 94.1823 271.356C-29.2331 346.482 89.4155 487.472 348.049 523.577C606.682 559.681 907.165 507.946 894.775 428.632Z" fill="#F2F2F2"/>
</g>
<path fill-rule="evenodd" clip-rule="evenodd" d="M280.5 209.673C303.972 209.673 323 199.6 323 187.173C323 174.747 303.972 164.673 280.5 164.673C257.028 164.673 238 174.747 238 187.173C238 199.6 257.028 209.673 280.5 209.673Z" fill="#F2F2F2"/>
<path fill-rule="evenodd" clip-rule="evenodd" d="M330 202.673C330 175.059 307.838 152.673 280.5 152.673C253.162 152.673 231 175.059 231 202.673" fill="#DDE3E9"/>
<rect x="278" width="5" height="160" fill="#DDE3E9"/>
<g opacity="0.7">
<path fill-rule="evenodd" clip-rule="evenodd" d="M358 159C375.545 159 389.768 150.87 389.768 140.842C389.768 130.814 375.545 122.684 358 122.684C340.455 122.684 326.232 130.814 326.232 140.842C326.232 150.87 340.455 159 358 159Z" fill="#F2F2F2"/>
<path fill-rule="evenodd" clip-rule="evenodd" d="M395 153.351C395 131.066 378.435 113 358 113C337.565 113 321 131.066 321 153.351" fill="#DDE3E9"/>
<rect x="356" width="5" height="136" fill="#DDE3E9"/>
</g>
<path d="M875.741 254.236L924.268 231.58C926.413 230.579 928.892 230.579 931.037 231.58L1046.51 285.489C1052.14 288.119 1055.74 293.772 1055.74 299.987V624" stroke="#CBCBCB" stroke-width="8"/>
<rect x="1025.74" y="623" width="59" height="7" rx="3" fill="#AFB9C5"/>
<path d="M840.239 243.335C853.127 230.447 874.021 230.447 886.908 243.335V243.335C899.796 256.222 899.796 277.116 886.908 290.004L867.109 309.803L820.44 263.134L840.239 243.335Z" fill="#C5CFD6"/>
<path fill-rule="evenodd" clip-rule="evenodd" d="M839.969 290.527C852.856 303.414 865.361 311.804 867.899 309.265C870.438 306.727 862.048 294.222 849.161 281.335C836.274 268.447 823.769 260.058 821.23 262.596C818.692 265.135 827.081 277.64 839.969 290.527Z" fill="#F2F2F2"/>
<path fill-rule="evenodd" clip-rule="evenodd" d="M169.258 392.173C172.123 391.823 175.18 391.947 177.844 393.077C183.509 395.482 185.119 402.174 185.041 407.614C184.957 413.468 183.714 419.863 188.165 424.58C190.211 426.748 192.756 428.408 194.765 430.617C196.912 432.977 198.597 435.677 199.844 438.577C202.134 443.903 203.258 450.167 201.164 455.754C199.32 460.674 194.681 465.114 195.683 470.708C196.729 476.543 202.612 481.004 206.29 485.351C210.453 490.269 214.286 496.556 214.916 503.006C215.519 509.188 212.828 515.44 208.699 520.113C200.448 529.451 188.045 534.028 175.54 534C170.23 533.988 164.219 533.748 159.637 530.895C158.22 530.013 157.473 529.023 156.631 527.648C155.877 526.414 154.88 525.612 153.725 524.739C151.19 522.822 149.359 520.239 148.19 517.347C143.652 506.114 147.279 492.218 153.631 482.243C155.136 479.88 156.369 477.605 155.637 474.789C154.874 471.848 152.999 469.196 151.34 466.669C149.701 464.17 147.83 461.787 146.549 459.087C145.207 456.257 144.829 453.294 145.066 450.198C145.512 444.381 148.023 439.013 151.578 434.336C155.002 429.83 159.022 425.518 159.031 419.615C159.041 413.357 154.858 407.791 156.64 401.429C157.378 398.795 158.86 396.092 161.249 394.513C163.539 392.998 166.564 392.502 169.258 392.173Z" fill="#DDE3E9"/>
<path fill-rule="evenodd" clip-rule="evenodd" d="M167.386 402.176C167.44 401.336 168.437 400.832 169.222 401.051C170.254 401.34 170.235 402.305 170.207 403.165C170.124 405.808 170.506 408.377 171.142 410.942C172.462 416.274 174.903 421.186 176.836 426.308C178.768 431.425 179.675 436.709 178.542 442.124C177.473 447.23 175.795 452.203 174.701 457.315C173.738 461.821 172.712 466.573 174.18 471.067C175.592 475.393 178.714 478.916 180.962 482.825C185.617 490.918 187.681 499.896 187.957 509.135C188.085 513.425 187.97 517.755 186.975 521.963C186.402 524.386 185.632 527.66 183.556 529.333C182.599 530.105 180.961 530.371 180.155 529.229C179.399 528.158 180.062 526.499 180.303 525.357C181.343 520.413 181.552 515.361 181.303 510.342C181.062 505.48 180.487 500.626 178.957 495.982C177.537 491.673 175.379 487.802 172.84 484.032C170.252 480.191 167.562 476.341 166.493 471.789C165.406 467.166 166.289 462.462 167.469 457.927C168.717 453.131 170.352 448.472 172.042 443.805C173.689 439.258 174.272 434.955 173.363 430.196C171.567 420.794 166.76 411.968 167.386 402.176Z" fill="#C5CFD6"/>
<path fill-rule="evenodd" clip-rule="evenodd" d="M244.892 403.582C248.437 404.659 251.958 406.395 254.485 409.118C259.858 414.909 258.209 423.661 255.243 430.053C252.05 436.933 247.212 443.849 249.94 451.743C251.193 455.372 253.301 458.659 254.49 462.316C255.761 466.224 256.309 470.294 256.239 474.372C256.11 481.862 254.118 489.855 248.708 495.373C243.945 500.232 236.158 503.07 234.377 510.206C232.518 517.651 237.061 525.988 239.078 533.041C241.36 541.024 242.533 550.453 239.862 558.409C237.303 566.034 230.842 572.028 223.528 575.406C208.915 582.156 191.949 581.117 177.296 574.578C171.075 571.801 164.151 568.391 160.285 562.633C159.09 560.853 158.736 559.294 158.476 557.23C158.243 555.378 157.497 553.911 156.605 552.278C154.644 548.692 153.862 544.684 154.02 540.656C154.634 525.011 166.234 510.464 178.956 501.972C181.971 499.96 184.618 497.912 185.249 494.2C185.909 490.325 185.111 486.213 184.501 482.361C183.899 478.554 182.964 474.763 182.889 470.902C182.811 466.858 183.933 463.157 185.848 459.619C189.445 452.972 195.227 447.93 201.87 444.247C208.267 440.7 215.262 437.692 218.393 430.715C221.712 423.32 219.747 414.561 225.2 407.964C227.458 405.233 230.625 402.807 234.262 402.182C237.749 401.583 241.558 402.57 244.892 403.582Z" fill="#DDE3E9"/>
<path fill-rule="evenodd" clip-rule="evenodd" d="M237.651 415.811C238.154 414.844 239.584 414.769 240.387 415.44C241.443 416.324 240.914 417.456 240.432 418.46C238.95 421.547 238.052 424.789 237.452 428.159C236.204 435.166 236.485 442.262 236.063 449.341C235.642 456.414 233.935 463.147 229.774 468.965C225.85 474.452 221.283 479.462 217.327 484.943C213.841 489.773 210.153 494.863 209.516 500.954C208.901 506.817 210.707 512.626 211.288 518.434C212.492 530.457 210.204 542.171 205.688 553.257C203.591 558.405 201.189 563.472 197.821 567.933C195.882 570.503 193.267 573.977 189.963 574.869C188.44 575.281 186.385 574.739 186.042 572.964C185.718 571.298 187.363 569.682 188.242 568.455C192.047 563.146 194.938 557.273 197.275 551.198C199.54 545.314 201.41 539.265 202.053 532.963C202.649 527.116 202.153 521.401 201.158 515.606C200.144 509.701 199.015 503.732 200.149 497.781C201.3 491.736 204.795 486.628 208.55 481.876C212.521 476.85 216.873 472.19 221.293 467.549C225.6 463.027 228.536 458.238 229.966 452.126C232.79 440.049 231.791 427.078 237.651 415.811Z" fill="#C5CFD6"/>
<path fill-rule="evenodd" clip-rule="evenodd" d="M135.306 448C141.2 448 146.382 451.124 149.953 455.558C154.133 460.748 154.977 467.086 156.675 473.272C157.519 476.35 158.972 479.406 161.517 481.498C163.833 483.4 166.772 483.78 169.543 484.71C175.082 486.567 179.555 491.041 181.321 496.499C183.476 503.158 181.193 509.873 181.586 516.622C181.947 522.819 188.058 526.685 192.974 529.656C197.821 532.586 202.189 535.328 203.649 541.035C205.197 547.088 205.716 553.844 203.572 559.823C200.002 569.779 189.552 574.163 179.456 574.842C170.293 575.459 158.772 574.491 151.891 567.84C147.773 563.86 146.282 558.293 146.467 552.755C146.582 549.311 147.264 545.899 148.146 542.571C148.771 540.213 149.616 537.864 149.856 535.427C150.496 528.942 144.503 527.697 139.401 525.916C132.918 523.654 128.38 519.38 125.224 513.425C122.285 507.881 121.052 501.658 122.814 495.554C123.714 492.437 125.346 489.61 127.559 487.205C128.533 486.146 129.907 485.263 130.786 484.151C131.607 483.112 131.428 481.766 131.145 480.55C129.837 474.931 125.762 470.278 124.305 464.668C122.989 459.605 123.767 453.304 128.395 450.038C130.395 448.627 132.862 448.016 135.306 448Z" fill="#C5CFD6"/>
<path fill-rule="evenodd" clip-rule="evenodd" d="M143.338 462.641C149.585 469.296 151.283 478.325 151.781 487.076C152.061 491.983 151.77 497.159 153.212 501.919C154.445 505.993 157.337 509.107 160.318 512.051C166.319 517.975 173.011 523.999 174.766 532.574C175.796 537.606 175.101 542.804 176.524 547.78C177.817 552.304 180.096 556.748 182.867 560.568C185.098 563.645 188.004 566 190.443 568.867C191.187 569.743 192.253 571.031 191.946 572.267C191.586 573.714 189.743 574.172 188.435 573.945C185.386 573.415 182.819 570.503 180.825 568.386C177.91 565.291 175.432 561.962 173.419 558.227C171.183 554.08 169.383 549.679 168.614 545.026C167.816 540.199 168.213 535.168 166.391 530.535C163.324 522.74 155.886 518.14 150.508 512.064C143.808 504.494 144.807 495.072 145.493 485.759C145.87 480.641 146.245 474.862 143.659 470.189C142.672 468.406 140.471 466.743 140.047 464.715C139.658 462.858 141.78 460.981 143.338 462.641Z" fill="#AFB9C5"/>
<path fill-rule="evenodd" clip-rule="evenodd" d="M150 572C150 610.058 156.211 630 189 630C221.789 630 228 610.058 228 572H150Z" fill="#89C5CC"/>
<path fill-rule="evenodd" clip-rule="evenodd" d="M776.161 327.027C768.142 331.774 760.263 334.068 756.565 333.131C747.291 330.783 746.438 297.462 753.614 284.325C760.79 271.189 797.68 265.463 799.539 291.49C800.184 300.524 796.322 308.585 790.616 315.164L800.848 362H771.128L776.161 327.027Z" fill="#B28B67"/>
<path fill-rule="evenodd" clip-rule="evenodd" d="M770.243 269.207C774.167 268.576 784.731 268.142 786.679 268.142C787.925 268.142 789.274 268.421 790.011 267.299C790.615 266.381 790.394 264.828 790.574 263.762C790.783 262.524 791.081 261.302 791.381 260.083C792.237 256.614 793.531 253.314 795.341 250.216C798.737 244.403 803.713 239.85 809.995 237.201C816.932 234.275 824.782 233.605 832.244 234.199C840.229 234.834 847.458 237.419 854.997 239.853C862.181 242.172 869.706 243.085 877.22 241.952C884.791 240.811 890.512 236.786 896.898 232.965C903.435 229.054 910.906 226.496 918.634 227.084C925.848 227.633 932.497 230.555 938.463 234.459C944.044 238.111 948.649 242.505 951.249 248.689C954.046 255.342 954.044 262.644 949.444 268.523C942.777 277.045 930.4 279.249 920.103 279.03C914.147 278.903 908.298 277.837 902.675 275.897C895.176 273.309 888.695 268.923 881.68 265.365C878.387 263.695 874.984 262.324 871.417 261.336C867.955 260.377 864.546 259.937 861.412 261.988C858.096 264.159 855.125 266.29 851.332 267.649C847.694 268.952 843.839 269.681 839.963 269.652C832.42 269.595 824.985 267.289 817.659 265.745C811.685 264.486 805.293 263.231 799.203 264.441C796.662 264.946 792.949 265.989 792.032 268.58C807.48 271.327 813.548 290.07 809.193 303.829C806.842 311.255 792.712 319.936 787.218 316.032C783.738 313.559 785.851 310.312 787.218 308.168C789.837 304.063 790.733 298.79 785.887 295.932C781.707 293.467 777.313 299.321 777.229 299.314C776.081 299.226 766.154 293.718 759.314 285.682C752.567 286.074 751.544 281.71 753.155 278.141C754.766 274.571 764.822 270.08 770.243 269.207Z" fill="#191847"/>
<path fill-rule="evenodd" clip-rule="evenodd" d="M867.648 514.134C876.484 514.134 883.648 521.297 883.648 530.134V622.679C883.648 631.516 876.484 638.679 867.648 638.679H751.676C742.84 638.679 735.676 631.516 735.676 622.679V530.134C735.676 521.297 742.84 514.134 751.676 514.134H867.648ZM851.463 542.257C853.672 542.257 855.463 544.048 855.463 546.257V606.556C855.463 608.765 853.672 610.556 851.463 610.556H767.861C765.652 610.556 763.861 608.765 763.861 606.556V546.257C763.861 544.048 765.652 542.257 767.861 542.257H851.463Z" fill="#C5CFD6"/>
<path fill-rule="evenodd" clip-rule="evenodd" d="M635.862 633.657C655.708 609.475 669.137 591.548 676.147 579.876C688.151 559.889 697.976 542.105 701.076 535.311C708.469 519.111 684.055 511.525 678.53 519.081C670.167 530.518 652.307 566.506 624.949 627.046L635.862 633.657Z" fill="#B28B67"/>
<path fill-rule="evenodd" clip-rule="evenodd" d="M676.53 626.626L713.465 533.857C721.365 516.946 683.216 505.83 677.41 513.7C664.23 531.568 632.903 602.053 628.976 607.376L676.53 626.626Z" fill="#2F3676"/>
<path fill-rule="evenodd" clip-rule="evenodd" d="M774.901 608.022C767.706 597.55 741.536 562.319 727.282 547.742C723.186 543.553 719.189 539.533 715.409 535.786C704.173 524.65 681.799 543.368 693.014 553.511C720.944 578.772 761.696 612.873 765.101 615.914C769.873 620.175 779.422 614.603 774.901 608.022Z" fill="#B28B67"/>
<path fill-rule="evenodd" clip-rule="evenodd" d="M770.248 603.699C770.94 602.757 772.282 602.534 773.179 603.287C774.824 604.667 777.199 606.801 778.055 608.28C779.416 610.633 781.243 615.599 781.243 615.599C778.507 617.175 732.074 643.924 732.074 643.924C732.074 643.924 726.5 638.706 730.337 635.823C734.175 632.94 736.671 630.961 736.671 630.961L753.646 607.625C753.977 607.169 754.619 607.077 755.066 607.421L758.597 610.133C758.597 610.133 763.449 609.711 765.839 608.334C767.298 607.494 769.08 605.29 770.248 603.699Z" fill="#E4E4E4"/>
<path fill-rule="evenodd" clip-rule="evenodd" d="M641.625 628.914C642.695 628.443 643.967 628.92 644.367 630.019C645.1 632.035 646.088 635.068 646.088 636.776C646.088 639.493 645.181 644.705 645.181 644.705C642.022 644.705 588.406 644.705 588.406 644.705C588.406 644.705 586.193 637.405 590.961 636.823C595.729 636.241 598.883 635.772 598.883 635.772L625.279 624.031C625.793 623.802 626.395 624.042 626.609 624.562L628.308 628.674C628.308 628.674 632.722 630.729 635.482 630.729C637.167 630.729 639.816 629.708 641.625 628.914Z" fill="#E4E4E4"/>
<path fill-rule="evenodd" clip-rule="evenodd" d="M726.756 538.491C726.756 538.491 772.803 531.006 788.442 528.254C818.16 523.025 826.826 507.069 821.702 472.253L766.947 472.253C756.078 475.385 676.118 510.992 676.118 510.992C666.527 515.743 668.313 529.75 670.066 534.365C670.173 534.647 718.572 617.298 718.572 617.298L763.364 588.826L726.671 541.846C726.671 541.846 725.218 538.925 726.756 538.491Z" fill="#5C63AB"/>
<path fill-rule="evenodd" clip-rule="evenodd" d="M664.593 417.539L712.25 423.788L703.7 444.315L665.03 429.577C648.362 431.157 640.302 430.777 640.851 428.435C641.313 426.46 643.085 425.864 644.717 425.315C645.988 424.887 647.174 424.488 647.591 423.488C648.543 421.203 643.124 416.469 637.784 412.189C632.444 407.909 636.029 407.122 638.282 407.185C646.289 408.99 655.06 412.441 664.593 417.539ZM896.445 530.081C892.908 523.182 861.958 434.393 861.958 434.393L835.527 434.489C835.527 434.489 879.001 528.542 880.863 532.979C883.281 538.742 879.173 547.115 876.387 552.792C875.956 553.671 875.556 554.484 875.218 555.214C879.084 556.877 880.941 554.867 882.898 552.748C885.109 550.354 887.449 547.822 892.957 550.285C895.085 551.237 897.099 552.362 899.066 553.462C905.862 557.259 912.104 560.748 920.597 555.71C921.943 554.911 923.419 551.904 919.854 549.554C910.973 543.7 898.175 533.453 896.445 530.081Z" fill="#997659"/>
<path fill-rule="evenodd" clip-rule="evenodd" d="M789.561 353.802L768.867 355.127C763.77 399.457 736.009 427.458 673.853 417.978L665.595 475.065C723.689 482.283 774.638 459.923 785.079 399.382C787.782 383.71 789.917 367.4 789.561 353.802Z" fill="#AFB9C5"/>
<path fill-rule="evenodd" clip-rule="evenodd" d="M892.82 518.583C878.452 445.086 848.125 388.225 801.841 348H799.855H799.787L799.771 348.018L768.416 354.922C768.416 391.132 760.037 418.188 751.981 444.2C748.502 455.433 745.083 466.471 742.426 477.968H827.107C828.3 491.14 829.032 504.678 829.414 518.583H892.82Z" fill="#C5CFD6"/>
<path fill-rule="evenodd" clip-rule="evenodd" d="M827.107 477.968C824.678 451.151 820.341 425.853 813.172 402.074C814.744 427.504 815.18 459.051 809.896 477.968H827.107Z" fill="black" fill-opacity="0.1"/>
<path fill-rule="evenodd" clip-rule="evenodd" d="M323 513C314.163 513 307 520.163 307 529V621C307 629.837 314.163 637 323 637H438C446.837 637 454 629.837 454 621V529C454 520.163 446.837 513 438 513H323ZM339 541C336.791 541 335 542.791 335 545V605C335 607.209 336.791 609 339 609H422C424.209 609 426 607.209 426 605V545C426 542.791 424.209 541 422 541H339Z" fill="#C5CFD6"/>
<path fill-rule="evenodd" clip-rule="evenodd" d="M553.159 632C533.443 607.924 520.103 590.075 513.138 578.454C501.213 558.555 491.453 540.848 488.373 534.084C481.028 517.955 505.282 510.403 510.771 517.926C519.079 529.312 536.822 565.143 564 625.417L553.159 632Z" fill="#B28B67"/>
<path fill-rule="evenodd" clip-rule="evenodd" d="M512.758 625L476.065 532.637C468.217 515.8 506.116 504.732 511.883 512.568C524.977 530.357 556.099 600.534 560 605.834L512.758 625Z" fill="#2F3676"/>
<path fill-rule="evenodd" clip-rule="evenodd" d="M415.033 606.477C422.181 596.051 448.179 560.974 462.339 546.461C466.408 542.291 470.379 538.288 474.134 534.557C485.296 523.47 507.524 542.106 496.382 552.205C468.635 577.355 428.151 611.307 424.769 614.334C420.028 618.577 410.541 613.029 415.033 606.477Z" fill="#B28B67"/>
<path fill-rule="evenodd" clip-rule="evenodd" d="M419.664 602.185C418.971 601.241 417.63 601.017 416.734 601.771C415.099 603.146 412.748 605.264 411.899 606.734C410.547 609.076 408.733 614.021 408.733 614.021C411.45 615.59 457.578 642.222 457.578 642.222C457.578 642.222 463.116 637.027 459.304 634.156C455.492 631.286 453.012 629.315 453.012 629.315L436.152 606.087C435.821 605.631 435.179 605.538 434.733 605.882L431.23 608.579C431.23 608.579 426.409 608.158 424.035 606.788C422.59 605.953 420.824 603.767 419.664 602.185Z" fill="#E4E4E4"/>
<path fill-rule="evenodd" clip-rule="evenodd" d="M547.45 627.284C546.378 626.813 545.104 627.29 544.705 628.391C543.977 630.398 543 633.409 543 635.106C543 637.811 543.901 643 543.901 643C547.039 643 600.303 643 600.303 643C600.303 643 602.502 635.732 597.765 635.152C593.028 634.573 589.895 634.106 589.895 634.106L563.68 622.419C563.165 622.189 562.563 622.43 562.348 622.951L560.663 627.039C560.663 627.039 556.278 629.085 553.537 629.085C551.868 629.085 549.246 628.074 547.45 627.284Z" fill="#E4E4E4"/>
<path fill-rule="evenodd" clip-rule="evenodd" d="M462.862 537.25C462.862 537.25 417.117 529.798 401.581 527.058C372.057 521.852 363.448 505.965 368.538 471.302L422.934 471.302C433.732 474.42 513.168 509.872 513.168 509.872C522.696 514.602 520.921 528.548 519.18 533.142C519.073 533.423 470.992 615.713 470.992 615.713L426.494 587.366L462.946 540.59C462.946 540.59 464.39 537.682 462.862 537.25Z" fill="#5C63AB"/>
<path fill-rule="evenodd" clip-rule="evenodd" d="M402 332.707C413.429 332.707 417.585 319.024 424.079 311.515C428.724 306.143 436.653 307.745 439 300.224C444.902 281.311 429.106 268 408.5 268C387.894 268 374 279.674 371 297.224C368 314.773 381.394 332.707 402 332.707Z" fill="#191847"/>
<path fill-rule="evenodd" clip-rule="evenodd" d="M414.935 330.244C421.411 334.147 427.774 336.033 430.76 335.263C438.25 333.333 438.938 305.935 433.143 295.134C427.349 284.333 397.558 279.625 396.057 301.025C395.536 308.453 398.654 315.081 403.262 320.49L395 359H419L414.935 330.244Z" fill="#B28B67"/>
<path fill-rule="evenodd" clip-rule="evenodd" d="M397.617 286C379.234 304 397.687 323.132 402.743 323.132C403.07 320.535 404.065 318.008 405.524 315.604C404.749 314.6 404.29 313.352 404.29 312C404.29 308.686 407.046 306 410.447 306C411.509 306 412.508 306.262 413.38 306.723C420.75 300.438 429.993 296.056 434.583 295.194C442.566 293.696 416 268 397.617 286Z" fill="#191847"/>
<path fill-rule="evenodd" clip-rule="evenodd" d="M503.372 453.758L475.044 426.123L465.636 442.403L495.093 459.77C502.479 471.405 506.817 476.432 508.107 474.852C509.195 473.519 508.696 472.058 508.237 470.713C507.879 469.665 507.545 468.687 508.004 467.894C509.051 466.082 514.965 467.12 520.535 468.344C526.105 469.568 524.817 466.832 523.633 465.404C518.368 461.156 511.615 457.273 503.372 453.758ZM336.398 493.908C339.328 487.963 349.308 430.02 349.308 430.02L370.205 430.102C370.205 430.102 350.851 492.583 349.308 496.406C347.304 501.372 350.708 508.587 353.016 513.48C353.373 514.237 353.704 514.938 353.985 515.567C350.782 517 349.243 515.268 347.621 513.442C345.79 511.379 343.851 509.197 339.288 511.32C337.525 512.14 335.857 513.109 334.227 514.057C328.597 517.329 323.425 520.336 316.389 515.994C315.274 515.306 314.051 512.715 317.005 510.69C324.362 505.645 334.965 496.815 336.398 493.908Z" fill="#B28B67"/>
<path fill-rule="evenodd" clip-rule="evenodd" d="M408.695 342.332L417.342 340.849C432.23 378.039 458.222 411.831 495.318 442.225L467.286 476.281C430.194 433.005 407.33 388.355 408.695 342.332Z" fill="#99C1F2"/>
<path fill-rule="evenodd" clip-rule="evenodd" d="M371 451H448C448 451 421.241 385.938 421.241 340.461L398.014 337C379.76 366.358 374.605 402.505 371 451Z" fill="#DDE3E9"/>
<path fill-rule="evenodd" clip-rule="evenodd" d="M336 484C344.421 388.996 397.504 337 397.504 337L397.522 337.016C397.525 337.011 397.529 337.005 397.532 337H399.048C401.769 337.094 407.338 337.338 407.338 337.338L412.95 353.377C413.841 382.71 423.351 471.606 423.351 471.606H372.95C373.036 475.682 373.225 479.815 373.531 484H336Z" fill="#99C1F2"/>
<path fill-rule="evenodd" clip-rule="evenodd" d="M372.958 472C372.556 454.25 374.131 437.584 376.758 422.502C378.132 440.399 381.003 461.933 387 472H372.958Z" fill="black" fill-opacity="0.1"/>
<path fill-rule="evenodd" clip-rule="evenodd" d="M384.111 441L409 429.429V441H384.111Z" fill="white" fill-opacity="0.2"/>
<defs>
<clipPath id="clip0_13_420">
<rect width="1055.48" height="332.5" fill="white" transform="translate(45.1459 251.177)"/>
</clipPath>
</defs>
</svg>
