<svg width="514" height="341" viewBox="0 0 514 341" fill="none" xmlns="http://www.w3.org/2000/svg">
<g clip-path="url(#clip0_8_2)">
<path d="M260.388 95.8416C255.805 88.2684 250.374 80.1825 241.869 77.7096C232.02 74.8459 221.902 80.5348 213.32 86.1486C187.654 102.937 162.938 121.132 139.283 140.649L139.309 140.943C157.725 139.674 176.141 138.405 194.556 137.136C207.862 136.219 221.624 135.176 233.383 128.888C237.844 126.501 242.194 123.314 247.25 123.092C253.531 122.816 259.009 127.199 263.313 131.778C288.774 158.867 296.142 200.291 324.708 224.09C306.695 179.709 285.188 136.825 260.388 95.8416V95.8416Z" fill="#F2F2F2"/>
<path d="M416.896 325.601C414.08 322.049 412.93 321.217 410.152 317.632C387.538 288.41 366.282 258.201 346.385 227.005C332.871 205.818 320.026 184.224 307.852 162.223C302.056 151.764 296.418 141.222 290.94 130.599C286.689 122.361 282.533 114.075 278.472 105.739C277.31 103.358 276.182 100.966 275.059 98.569C272.413 92.9315 269.816 87.2667 267.028 81.7058C263.851 75.3677 259.983 68.7232 254.148 64.465C251.493 62.4475 248.318 61.2269 244.994 60.9457C240.245 60.6392 235.862 62.5986 231.742 64.7386C201.601 80.4415 173.383 100.129 147.86 122.531C122.271 144.983 99.3995 170.349 79.7105 198.112C79.1081 198.971 77.6837 198.15 78.2917 197.285C80.6857 193.903 83.1272 190.557 85.6161 187.247C116.564 146.124 154.511 110.761 197.723 82.7731C204.992 78.0661 212.399 73.5798 219.942 69.3143C223.744 67.1633 227.563 65.0396 231.447 63.0474C235.254 61.0934 239.297 59.3365 243.647 59.2708C258.449 59.0409 266.113 75.7892 271.377 87.0587C273.032 90.6053 274.706 94.1411 276.401 97.6659C282.805 111.048 289.456 124.308 296.353 137.446C300.609 145.557 304.959 153.621 309.402 161.638C323.229 186.601 337.925 211.06 353.491 235.012C374.111 266.741 394.567 294.77 418.057 324.44C418.704 325.261 417.548 326.433 416.896 325.601Z" fill="#E4E4E4"/>
<path d="M146.397 114.261C145.537 113.303 144.682 112.345 143.817 111.387C136.991 103.845 129.667 96.3906 120.293 92.0667C115.824 89.94 110.945 88.81 105.995 88.7554C100.878 88.7718 95.8769 90.1128 91.1492 91.9901C88.9141 92.8823 86.7281 93.8948 84.5753 94.973C82.1155 96.21 79.6995 97.5291 77.2948 98.8591C72.7806 101.355 68.325 103.96 63.9279 106.675C55.1791 112.077 46.7042 117.891 38.5034 124.118C34.2521 127.348 30.0886 130.683 26.0128 134.123C22.2219 137.32 18.5077 140.602 14.8702 143.97C14.0923 144.687 12.9309 143.527 13.7087 142.81C14.6674 141.917 15.6371 141.031 16.6067 140.155C19.3459 137.681 22.1288 135.255 24.9557 132.876C30.1105 128.53 35.3988 124.352 40.8206 120.342C49.2517 114.102 57.973 108.286 66.9846 102.893C71.4878 100.2 76.053 97.6203 80.6801 95.1537C82.0772 94.4093 83.4907 93.6814 84.9204 92.9917C88.1646 91.3568 91.5355 89.9858 95.0003 88.8922C99.9083 87.3059 105.101 86.7963 110.224 87.398C115.171 88.1169 119.937 89.7641 124.271 92.2528C133.474 97.3922 140.612 105.339 147.558 113.095C148.26 113.883 147.104 115.049 146.397 114.261Z" fill="#E4E4E4"/>
<path d="M334.971 192.418L357.024 184.359L367.974 180.358C371.54 179.055 375.098 177.571 378.784 176.638C381.988 175.724 385.389 175.767 388.569 176.763C391.404 177.811 393.999 179.418 396.2 181.489C398.449 183.558 400.541 185.79 402.46 188.168C404.844 191.03 407.193 193.923 409.552 196.805C419.289 208.703 428.963 220.652 438.572 232.653C448.182 244.653 457.727 256.705 467.208 268.807C476.713 280.939 486.152 293.122 495.525 305.356C496.673 306.854 497.821 308.354 498.967 309.854C499.6 310.683 501.028 309.866 500.386 309.025C490.943 296.669 481.435 284.363 471.861 272.107C462.263 259.822 452.598 247.59 442.868 235.409C433.138 223.229 423.342 211.102 413.48 199.027C411.023 196.019 408.562 193.014 406.097 190.013C404.018 187.481 401.962 184.922 399.681 182.565C395.495 178.239 390.265 174.417 384.004 174.313C380.323 174.252 376.761 175.419 373.341 176.655C369.654 177.988 365.976 179.345 362.293 180.691L340.086 188.806L334.534 190.835C333.548 191.195 333.974 192.782 334.971 192.418L334.971 192.418Z" fill="#E4E4E4"/>
<path d="M117.391 101.557C106.184 95.8024 91.8316 96.9295 81.5331 104.119C101.177 107.505 120.606 112.036 139.72 117.687C131.783 113.04 125.574 105.759 117.391 101.557Z" fill="#F2F2F2"/>
<path d="M81.4228 104.099L79.2652 105.851C79.995 105.238 80.7537 104.663 81.5331 104.119C81.4963 104.113 81.4596 104.106 81.4228 104.099Z" fill="#F2F2F2"/>
<path d="M395.37 192.499C393.199 189.858 390.852 187.094 387.605 186.022L384.573 186.141C407.651 226.883 438.818 262.482 476.163 290.755C449.232 258.003 422.301 225.251 395.37 192.499Z" fill="#F2F2F2"/>
<path d="M206.853 170.719C208.256 175.811 211.417 180.244 215.776 183.232C217.461 184.378 219.455 185.478 220.031 187.432C220.335 188.678 220.148 189.992 219.509 191.104C218.872 192.201 218.097 193.213 217.202 194.114L217.12 194.419C212.938 191.943 208.959 188.811 206.649 184.538C204.339 180.264 204.017 174.663 206.853 170.719" fill="#F2F2F2"/>
<path d="M346.09 291.919C347.493 297.011 350.654 301.443 355.013 304.432C356.698 305.578 358.692 306.678 359.268 308.632C359.572 309.877 359.385 311.192 358.746 312.304C358.109 313.401 357.333 314.413 356.439 315.313L356.357 315.619C352.175 313.143 348.196 310.011 345.886 305.737C343.576 301.464 343.253 295.863 346.09 291.919" fill="#F2F2F2"/>
<path d="M68.2139 283.56C69.6168 288.652 72.7774 293.085 77.1364 296.073C78.8217 297.22 80.8156 298.319 81.3922 300.273C81.6954 301.519 81.5086 302.833 80.8701 303.945C80.2328 305.043 79.4573 306.054 78.5627 306.955L78.481 307.261C74.2989 304.784 70.3202 301.652 68.01 297.379C65.6998 293.105 65.3773 287.504 68.2139 283.56" fill="#F2F2F2"/>
<path d="M387.98 60.8984C404.812 60.8984 418.457 47.2658 418.457 30.4492C418.457 13.6326 404.812 0 387.98 0C371.148 0 357.503 13.6326 357.503 30.4492C357.503 47.2658 371.148 60.8984 387.98 60.8984Z" fill="#338FFF"/>
<path d="M442.979 7.08713C428.209 5.09244 411.346 13.0687 407.518 27.4603C406.553 24.9015 404.799 22.7153 402.509 21.2177C400.219 19.72 397.512 18.9884 394.779 19.1285C392.046 19.2687 389.428 20.2733 387.303 21.9972C385.179 23.7212 383.658 26.0753 382.961 28.7193L384.652 29.9293C416.304 36.768 449.069 36.62 480.659 29.4957C470.385 18.7077 457.749 9.08178 442.979 7.08713Z" fill="#F0F0F0"/>
<path d="M379.635 47.6861C364.865 45.6914 348.002 53.6677 344.174 68.0593C343.209 65.5005 341.455 63.3143 339.165 61.8166C336.875 60.319 334.168 59.5873 331.435 59.7275C328.702 59.8676 326.084 60.8722 323.96 62.5962C321.835 64.3202 320.315 66.6742 319.617 69.3183L321.308 70.5283C352.96 77.367 385.726 77.219 417.315 70.0946C407.041 59.3067 394.406 49.6807 379.635 47.6861Z" fill="#F0F0F0"/>
<path d="M508.55 55.3627C508.489 55.3629 508.428 55.3534 508.37 55.3348C350.365 5.41111 211.105 11.9395 122.104 26.2073C109.992 28.1483 97.8472 30.3901 86.0076 32.871C82.985 33.5036 79.8491 34.1817 76.6873 34.8878C72.9113 35.7279 69.1854 36.5932 65.6128 37.4584C64.0698 37.8234 62.557 38.1913 61.0743 38.5622C58.8284 39.1161 56.5495 39.6933 54.1067 40.3276C51.377 41.0308 48.6035 41.7683 45.8616 42.5199C45.8515 42.5234 45.8413 42.5263 45.8309 42.5286L45.8312 42.5292C42.7342 43.374 39.6535 44.2434 36.6743 45.1116C35.0619 45.5768 33.5049 46.0357 32.0136 46.4887C31.847 46.5348 31.6993 46.5791 31.5496 46.6246L31.2292 46.7219C31.0437 46.7785 30.8604 46.8339 30.6772 46.8864L30.6655 46.8899L30.6658 46.8905L30.1808 47.0409C29.6025 47.2158 29.0382 47.3867 28.4832 47.5569C13.8156 52.0744 5.7523 55.2882 5.67264 55.3196C5.5998 55.3488 5.52192 55.3633 5.44345 55.3625C5.36498 55.3616 5.28746 55.3452 5.2153 55.3144C5.14315 55.2836 5.07777 55.2388 5.02292 55.1828C4.96807 55.1267 4.92481 55.0604 4.89561 54.9876C4.86641 54.9148 4.85185 54.837 4.85275 54.7586C4.85365 54.6802 4.87 54.6027 4.90086 54.5307C4.93172 54.4586 4.97649 54.3933 5.03261 54.3385C5.08874 54.2836 5.15511 54.2404 5.22796 54.2113C5.3082 54.1798 13.4109 50.9497 28.1319 46.4153C28.6889 46.2445 29.2547 46.0736 29.8348 45.8981L30.2853 45.7582C30.3008 45.7524 30.3162 45.7477 30.332 45.743C30.5144 45.6912 30.6964 45.6358 30.8814 45.5798L31.2024 45.4824C31.3623 45.434 31.5199 45.3862 31.6812 45.3419C33.1623 44.8918 34.7246 44.4318 36.3411 43.9647C39.3214 43.096 42.405 42.2267 45.5044 41.3807C45.5141 41.3772 45.524 41.3748 45.5336 41.3719V41.3713C48.2852 40.6174 51.0688 39.877 53.8073 39.1715C56.2539 38.5365 58.5371 37.9582 60.7869 37.4031C62.2759 37.0329 63.7916 36.6642 65.3341 36.297C68.9108 35.4306 72.6443 34.5642 76.427 33.7223C79.5938 33.0156 82.7349 32.3358 85.7625 31.7026C97.6205 29.2176 109.784 26.9723 121.915 25.0284C211.043 10.7402 350.502 4.20127 508.73 54.1966C508.866 54.2395 508.982 54.3297 509.057 54.4507C509.133 54.5718 509.162 54.7158 509.14 54.8567C509.119 54.9976 509.047 55.1261 508.939 55.2189C508.831 55.3117 508.693 55.3627 508.55 55.3627V55.3627Z" fill="#CCCCCC"/>
<path d="M157.158 250.663C156.951 250.058 156.602 249.512 156.142 249.069C155.972 248.911 155.788 248.769 155.592 248.645C154.032 247.606 151.702 247.373 150.22 248.645C150.07 248.774 149.932 248.916 149.807 249.069C149.365 249.612 148.911 250.143 148.445 250.663C147.68 251.534 146.897 252.376 146.078 253.194C145.845 253.421 145.612 253.654 145.373 253.881C145.236 254.018 145.098 254.149 144.961 254.281C144.435 254.782 143.897 255.266 143.353 255.743C143.067 256 142.78 256.251 142.487 256.496C142.051 256.86 141.615 257.224 141.172 257.576C141.13 257.606 141.089 257.636 141.047 257.672C141.035 257.678 141.029 257.69 141.017 257.696C141.011 257.696 141.005 257.696 140.999 257.708C140.983 257.714 140.968 257.724 140.957 257.738C140.826 257.827 140.736 257.887 140.67 257.941C140.694 257.929 140.718 257.911 140.742 257.899C140.634 257.982 140.521 258.066 140.413 258.15C139.368 258.92 138.298 259.66 137.204 260.353C134.499 262.083 131.657 263.59 128.707 264.86C128.51 264.938 128.306 265.021 128.103 265.099C120.379 268.261 112 269.494 103.692 268.693C102.843 268.628 101.995 268.538 101.146 268.425C100.166 268.281 99.1921 268.108 98.224 267.911C94.5385 267.177 90.9323 266.089 87.4556 264.663C83.1064 262.673 78.97 260.249 75.1095 257.427C74.5119 257.003 73.9083 256.579 73.3048 256.167C73.992 254.484 74.6673 252.8 75.3246 251.104C75.6533 250.286 75.97 249.469 76.2808 248.645C78.7249 242.298 81.0196 235.892 83.2187 229.462C85.4417 222.948 87.5392 216.396 89.5112 209.807C89.7144 209.138 89.9116 208.47 90.1029 207.801C91.1367 204.32 92.1287 200.831 93.0788 197.335C93.1684 196.994 93.2641 196.66 93.3477 196.32C93.6226 195.317 93.8915 194.314 94.1545 193.311C94.7521 191.048 93.4015 188.343 91.0231 187.8C89.878 187.507 88.6636 187.669 87.6358 188.252C86.6081 188.836 85.8471 189.795 85.5134 190.928C85.2564 191.896 84.9995 192.857 84.7366 193.824C83.4757 198.499 82.149 203.158 80.7567 207.801C80.5535 208.47 80.3503 209.138 80.1471 209.807C77.0755 219.921 73.7032 229.933 70.03 239.844C69.5878 241.044 69.1396 242.24 68.6855 243.432C68.4644 244.018 68.2433 244.603 68.0162 245.188C67.5799 246.34 67.1318 247.492 66.6836 248.645C66.4266 249.319 66.1636 249.994 65.9007 250.663C65.7274 251.086 65.5601 251.51 65.3928 251.928C63.689 251.317 61.9237 250.893 60.1281 250.663L59.8412 250.627C58.4491 250.459 57.0412 250.471 55.6522 250.663C53.5732 250.905 51.5729 251.601 49.7927 252.7C48.0125 253.8 46.4958 255.277 45.3499 257.027C42.4994 261.511 42.5352 267.923 46.5331 271.732C50.6504 275.655 56.8832 275.625 61.7296 273.171C64.2979 271.783 66.4634 269.755 68.0162 267.284C68.611 266.389 69.1576 265.462 69.6536 264.508C69.7791 264.592 69.9045 264.675 70.03 264.765C70.5081 265.099 70.9862 265.439 71.4583 265.774C74.2089 267.765 77.1077 269.543 80.1292 271.093C86.6261 274.32 93.6196 276.433 100.818 277.344C100.979 277.362 101.134 277.386 101.296 277.404C102.09 277.506 102.891 277.583 103.692 277.649C115.179 278.514 126.68 276.165 136.906 270.867C137.772 270.419 138.631 269.949 139.481 269.458C140.802 268.693 142.093 267.881 143.353 267.022C144.041 266.556 144.71 266.084 145.373 265.589C148.272 263.456 150.974 261.068 153.447 258.454C154.385 257.469 155.283 256.452 156.142 255.403C156.954 254.545 157.422 253.419 157.456 252.239C157.452 251.7 157.351 251.166 157.158 250.663V250.663ZM58.2039 264.884C58.3294 264.795 58.4549 264.699 58.5744 264.604C58.5385 264.693 58.3652 264.795 58.2039 264.884H58.2039ZM60.1221 262.956C59.9847 263.111 59.8592 263.266 59.7217 263.421C59.3036 263.889 58.8544 264.328 58.3772 264.735C58.3114 264.795 58.2397 264.854 58.168 264.908C58.1672 264.908 58.1664 264.908 58.1657 264.908C58.165 264.909 58.1643 264.909 58.1638 264.91C58.1632 264.91 58.1627 264.911 58.1625 264.912C58.1622 264.912 58.162 264.913 58.162 264.914C58.0757 264.953 57.9919 264.996 57.911 265.045C57.6541 265.201 57.3911 265.344 57.1222 265.475C56.5957 265.669 56.0541 265.819 55.5028 265.923C55.0792 265.954 54.6541 265.958 54.2299 265.935H54.218C53.9253 265.87 53.6361 265.79 53.3515 265.696C53.2081 265.624 53.0706 265.541 52.9332 265.457C52.8794 265.41 52.8316 265.362 52.8017 265.332C52.7433 265.279 52.6894 265.221 52.6404 265.159C52.6404 265.158 52.6403 265.157 52.64 265.156C52.6397 265.156 52.6393 265.155 52.6387 265.155C52.6381 265.154 52.6375 265.154 52.6367 265.153C52.636 265.153 52.6352 265.153 52.6344 265.153C52.5687 265.033 52.497 264.914 52.4313 264.795C52.4278 264.791 52.4257 264.787 52.4253 264.783C52.3775 264.633 52.3356 264.478 52.2998 264.323C52.2868 264.05 52.2888 263.777 52.3057 263.505C52.3859 263.124 52.4938 262.748 52.6284 262.383C52.7494 262.123 52.8872 261.872 53.0408 261.63C53.0527 261.606 53.1125 261.511 53.1782 261.403C53.1842 261.397 53.1842 261.397 53.1842 261.391C53.2738 261.29 53.3635 261.183 53.4591 261.087C53.6204 260.908 53.7937 260.753 53.967 260.591C54.3041 260.371 54.6532 260.17 55.0128 259.988C55.5833 259.786 56.1687 259.628 56.7637 259.517C57.6412 259.447 58.523 259.455 59.3991 259.541C60.2288 259.684 61.0475 259.886 61.8492 260.144C61.3633 261.086 60.8101 261.992 60.1939 262.854C60.1699 262.89 60.146 262.926 60.1221 262.956V262.956ZM53.477 260.991C53.4243 261.076 53.3622 261.154 53.2917 261.224C53.3392 261.136 53.4019 261.057 53.477 260.991V260.991Z" fill="#3D4956"/>
<path d="M139.194 189.687C139.141 191.561 139.087 193.436 139.033 195.311C138.919 199.472 138.802 203.635 138.68 207.801C138.555 212.488 138.423 217.172 138.286 221.855C138.22 224.273 138.153 226.691 138.083 229.109C137.898 235.623 137.714 242.135 137.533 248.645C137.515 249.319 137.491 249.988 137.473 250.663C137.384 253.893 137.294 257.123 137.204 260.353C137.103 263.857 137.003 267.362 136.906 270.867C136.834 273.493 136.76 276.122 136.684 278.753C136.147 297.817 135.609 316.881 135.071 335.944C135.048 337.125 134.569 338.251 133.733 339.085C132.897 339.92 131.771 340.399 130.589 340.422C129.403 340.413 128.269 339.938 127.431 339.1C126.592 338.262 126.117 337.129 126.107 335.944C126.406 325.221 126.709 314.498 127.016 303.776C127.284 294.08 127.557 284.384 127.834 274.688C127.924 271.493 128.014 268.297 128.103 265.099C128.241 260.287 128.376 255.475 128.51 250.663C128.527 249.988 128.551 249.319 128.569 248.645C128.581 248.053 128.599 247.468 128.617 246.877C128.88 237.534 129.143 228.188 129.406 218.84C129.513 215.162 129.617 211.483 129.717 207.801C129.836 203.604 129.956 199.408 130.075 195.215C130.129 193.37 130.177 191.531 130.231 189.687C130.253 188.506 130.733 187.38 131.568 186.545C132.404 185.71 133.531 185.231 134.712 185.209C135.898 185.218 137.033 185.693 137.871 186.531C138.709 187.369 139.185 188.502 139.194 189.687V189.687Z" fill="#3D4956"/>
<path d="M385.057 190.929C380.357 208.709 374.74 226.234 368.228 243.434C366.431 248.178 364.593 252.913 362.628 257.591L363.08 256.521C362.203 258.749 361.083 260.874 359.74 262.857C359.648 262.985 359.555 263.111 359.461 263.237C359.925 262.644 360.013 262.526 359.725 262.885C359.573 263.065 359.423 263.245 359.266 263.42C358.848 263.888 358.399 264.327 357.923 264.735C357.802 264.838 357.681 264.938 357.557 265.036L358.117 264.601C358.052 264.754 357.596 264.958 357.454 265.045C356.993 265.322 356.513 265.565 356.017 265.772L357.087 265.321C356.274 265.648 355.425 265.881 354.559 266.014L355.75 265.854C354.899 265.971 354.036 265.981 353.182 265.881L354.373 266.041C353.675 265.945 352.991 265.761 352.339 265.494L353.409 265.945C353.061 265.794 352.726 265.615 352.406 265.41C352.244 265.304 351.745 264.927 352.397 265.425C353.074 265.942 352.484 265.469 352.345 265.332C352.229 265.217 352.124 265.093 352.01 264.976C351.483 264.436 352.606 265.906 352.247 265.274C352.056 264.958 351.881 264.631 351.723 264.297L352.174 265.367C351.969 264.857 351.823 264.326 351.739 263.784L351.899 264.974C351.814 264.299 351.813 263.616 351.898 262.941L351.737 264.132C351.847 263.378 352.047 262.64 352.332 261.934L351.88 263.004C352.079 262.529 352.314 262.07 352.584 261.632C352.708 261.405 352.854 261.191 353.019 260.992C353.049 261.002 352.261 261.895 352.679 261.444C352.788 261.326 352.891 261.202 353.001 261.085C353.178 260.897 353.368 260.726 353.554 260.548C354.179 259.955 352.681 261.125 353.401 260.655C353.923 260.312 354.473 260.013 355.044 259.76L353.973 260.212C354.93 259.819 355.933 259.55 356.958 259.412L355.767 259.572C357.051 259.424 358.348 259.439 359.628 259.617L358.436 259.457C360.057 259.703 361.641 260.148 363.152 260.783L362.082 260.331C365.302 261.713 368.155 263.764 371.002 265.775C373.753 267.765 376.651 269.543 379.671 271.093C386.168 274.32 393.162 276.434 400.361 277.346C410.684 278.609 421.16 277.263 430.827 273.429C440.494 269.595 449.043 263.397 455.688 255.404C456.499 254.544 456.966 253.418 457.001 252.237C456.992 251.051 456.522 249.915 455.688 249.071C454.044 247.563 450.938 247.137 449.35 249.071C447.845 250.907 446.227 252.647 444.506 254.281C443.702 255.043 442.877 255.781 442.03 256.496C441.547 256.905 441.056 257.305 440.56 257.697C440.324 257.883 439.592 258.376 440.717 257.579C440.459 257.762 440.212 257.961 439.958 258.149C436.194 260.921 432.116 263.239 427.807 265.054L428.878 264.602C424.255 266.54 419.4 267.869 414.434 268.556L415.625 268.396C410.517 269.068 405.342 269.06 400.235 268.374L401.427 268.534C396.321 267.833 391.328 266.474 386.573 264.491L387.643 264.943C383.054 262.914 378.699 260.394 374.654 257.425C372.549 255.868 370.329 254.472 368.013 253.25C365.315 251.873 362.394 250.986 359.385 250.63C353.745 249.966 347.997 252.161 344.896 257.03C342.042 261.511 342.079 267.922 346.075 271.732C350.191 275.656 356.425 275.623 361.275 273.169C365.947 270.805 368.753 265.893 370.726 261.262C375.167 250.841 379.098 240.179 382.761 229.462C386.385 218.86 389.672 208.15 392.621 197.333C392.986 195.994 393.346 194.652 393.7 193.31C394.298 191.048 392.947 188.343 390.57 187.802C389.425 187.507 388.209 187.669 387.181 188.252C386.152 188.836 385.391 189.795 385.057 190.929L385.057 190.929Z" fill="#3D4956"/>
<path d="M429.776 189.686L428.162 246.879L426.558 303.774L425.65 335.945C425.66 337.129 426.136 338.262 426.974 339.1C427.812 339.937 428.946 340.412 430.132 340.422C431.313 340.4 432.44 339.92 433.276 339.086C434.111 338.251 434.591 337.125 434.614 335.945L436.227 278.752L437.832 221.857L438.739 189.686C438.729 188.502 438.254 187.369 437.415 186.531C436.577 185.694 435.443 185.219 434.257 185.208C433.076 185.231 431.949 185.71 431.113 186.545C430.278 187.38 429.798 188.506 429.776 189.686V189.686Z" fill="#3D4956"/>
<path opacity="0.2" d="M274.644 319.976H276.036V256.665H308.502V255.278H276.036V228.564H301.108C300.74 228.097 300.362 227.636 299.973 227.18H276.036V209.536C275.575 209.34 275.111 209.151 274.644 208.973V227.18H247.363V204.573C246.896 204.595 246.435 204.627 245.971 204.666V227.18H224.207V210.313C223.74 210.52 223.28 210.738 222.823 210.966V227.18H204.527V228.564H222.823V255.278H204.527V256.665H222.823V319.976H224.207V256.665C227.066 256.664 229.896 257.226 232.537 258.319C235.178 259.411 237.577 261.013 239.598 263.032C241.619 265.052 243.222 267.449 244.316 270.087C245.409 272.726 245.972 275.554 245.971 278.409V319.976H247.363V256.665H274.644V319.976ZM224.207 255.278V228.564H245.971V255.278H224.207ZM247.363 255.278V228.564H247.909C251.42 228.564 254.897 229.255 258.141 230.598C261.384 231.94 264.332 233.908 266.814 236.389C269.297 238.87 271.266 241.814 272.61 245.055C273.953 248.296 274.644 251.77 274.644 255.278H247.363Z" fill="black"/>
<path d="M266.145 300.993C264.393 308.802 260.196 315.85 254.163 321.114C253.721 321.496 253.279 321.866 252.819 322.23C251.701 322.332 250.592 322.435 249.49 322.541C248.576 322.624 247.674 322.714 246.777 322.797L246.616 322.815L246.502 321.836L246.048 317.872C244.286 314.998 243.194 311.765 242.853 308.412C242.511 305.06 242.93 301.673 244.076 298.504C245.654 294.253 248.51 290.497 251.319 286.772C255.197 281.625 258.968 276.538 259.105 270.264C261.014 272.703 262.6 275.378 263.826 278.222C262.669 278.766 261.63 279.531 260.767 280.473C260.522 280.742 260.277 281.118 260.444 281.44C260.587 281.715 260.946 281.78 261.257 281.816C262.004 281.894 262.757 281.971 263.504 282.049C264.101 282.115 264.699 282.174 265.296 282.24C266.019 284.611 266.51 287.046 266.76 289.512C267.163 293.348 266.955 297.223 266.145 300.993V300.993Z" fill="#3D4956"/>
<path d="M285.985 285.345C282.459 287.906 280.397 291.59 278.796 295.65C277.154 296.175 275.678 297.117 274.511 298.384C274.266 298.653 274.021 299.029 274.188 299.352C274.332 299.626 274.69 299.692 275.001 299.728C275.748 299.805 276.501 299.883 277.248 299.96C275.646 304.761 274.176 309.728 271.344 313.782C269.46 316.459 267.005 318.683 264.155 320.296C263.378 320.738 262.576 321.135 261.753 321.484C258.717 321.717 255.739 321.965 252.819 322.23C251.701 322.332 250.592 322.435 249.49 322.541C248.576 322.624 247.674 322.714 246.777 322.797C246.771 322.469 246.771 322.141 246.777 321.812C246.966 313.065 250.187 304.654 255.89 298.014C256.159 297.704 256.434 297.399 256.715 297.095C259.604 294.011 263.002 291.447 266.76 289.512C272.682 286.436 279.319 284.997 285.985 285.345V285.345Z" fill="#338FFF"/>
<path d="M250.524 319.478L249.837 321.508L249.49 322.541C248.576 322.624 247.674 322.714 246.777 322.797L246.616 322.815C245.624 322.917 244.638 323.018 243.652 323.12C243.395 322.821 243.138 322.517 242.887 322.206C236.649 314.66 233.655 304.953 234.559 295.208C235.463 285.463 240.19 276.471 247.709 270.198C246.921 274.323 247.841 278.276 249.353 282.198C249.191 282.264 249.036 282.33 248.887 282.401C247.73 282.946 246.691 283.71 245.827 284.652C245.582 284.921 245.337 285.297 245.504 285.62C245.648 285.894 246.006 285.96 246.317 285.996C247.064 286.073 247.817 286.151 248.564 286.228C249.162 286.294 249.759 286.354 250.357 286.419C250.638 286.449 250.918 286.479 251.199 286.509C251.241 286.599 251.277 286.682 251.319 286.772C253.022 290.461 254.857 294.169 255.89 298.014C256.15 298.979 256.353 299.958 256.5 300.946C256.96 304.285 256.662 307.684 255.627 310.893C254.593 314.101 252.849 317.035 250.524 319.478V319.478Z" fill="#338FFF"/>
<path d="M310.676 232.883C305.531 222.857 297.561 214.422 288.187 208.223C278.783 202.033 267.993 198.263 256.777 197.249C255.307 197.116 253.833 197.038 252.355 197.015C250.609 196.989 224.349 204.557 215.552 210.736C206.76 216.84 199.527 224.924 194.437 234.335C189.357 243.798 186.858 254.43 187.191 265.163C187.627 275.96 190.639 286.498 195.977 295.896C201.243 305.264 208.719 313.205 217.756 319.029C226.922 324.872 236.129 340.365 246.95 340.912C257.854 341.463 270.289 326.848 280.233 322.411C290.177 317.937 298.775 310.937 305.167 302.109C311.38 293.457 315.399 283.429 316.879 272.885C318.417 262.088 317.701 250.954 314.01 240.635C313.063 237.983 311.95 235.394 310.676 232.883C309.612 230.79 306.495 230.02 304.544 231.277C303.538 231.895 302.81 232.877 302.511 234.018C302.211 235.159 302.364 236.371 302.936 237.403C303.56 238.632 304.141 239.881 304.678 241.151L304.226 240.081C306.258 244.962 307.639 250.089 308.335 255.329L308.175 254.138C308.916 259.824 308.902 265.581 308.136 271.263L308.296 270.073C307.521 275.754 306.003 281.309 303.781 286.595L304.233 285.526C303.09 288.223 301.758 290.836 300.246 293.346C299.48 294.614 298.667 295.852 297.808 297.061C297.43 297.591 297.041 298.112 296.649 298.631C296.137 299.309 297.346 297.746 296.818 298.411C296.728 298.524 296.638 298.638 296.548 298.751C296.276 299.09 296.001 299.426 295.722 299.758C293.859 301.979 291.826 304.052 289.641 305.958C289.096 306.432 288.543 306.896 287.981 307.35C287.701 307.576 287.424 307.811 287.132 308.021C287.143 308.013 288.076 307.305 287.523 307.716C287.35 307.845 287.178 307.977 287.004 308.105C285.845 308.963 284.654 309.778 283.434 310.548C280.623 312.318 277.674 313.858 274.616 315.153L275.687 314.702C270.411 316.921 264.866 318.437 259.195 319.211L260.387 319.051C254.718 319.816 248.973 319.826 243.302 319.081L244.494 319.241C239.34 318.549 234.298 317.188 229.497 315.19L230.568 315.642C227.787 314.469 225.106 313.073 222.551 311.468C221.286 310.672 220.054 309.826 218.856 308.932C218.684 308.804 218.515 308.675 218.345 308.546C217.797 308.134 218.738 308.851 218.745 308.856C218.427 308.628 218.121 308.384 217.828 308.124C217.249 307.653 216.679 307.171 216.118 306.679C213.874 304.704 211.778 302.567 209.847 300.284C209.364 299.714 208.891 299.135 208.429 298.547C208.228 298.292 207.863 297.776 208.67 298.863C208.564 298.72 208.454 298.579 208.347 298.437C208.089 298.096 207.835 297.752 207.584 297.406C206.707 296.192 205.872 294.949 205.082 293.677C203.295 290.795 201.735 287.78 200.417 284.656L200.869 285.726C198.712 280.599 197.238 275.213 196.483 269.703L196.643 270.894C195.961 265.815 195.952 260.669 196.614 255.588L196.454 256.778C197.132 251.858 198.457 247.048 200.394 242.474L199.943 243.543C201.161 240.679 202.599 237.914 204.242 235.27C205.065 233.948 205.937 232.657 206.858 231.399C207.068 231.113 207.279 230.829 207.493 230.546C207.687 230.291 208.219 229.655 207.311 230.778C207.4 230.668 207.486 230.555 207.573 230.444C208.079 229.804 208.597 229.174 209.127 228.554C211.133 226.207 213.307 224.008 215.63 221.974C216.218 221.46 216.814 220.957 217.42 220.464C217.695 220.24 217.972 220.019 218.251 219.8C218.363 219.712 218.476 219.626 218.587 219.538C217.393 220.487 218.255 219.796 218.526 219.593C219.775 218.659 221.057 217.771 222.372 216.93C225.296 215.062 228.371 213.442 231.567 212.089L230.496 212.54C235.133 210.595 255.679 206.003 259.415 206.504L258.224 206.344C263.716 207.111 269.084 208.592 274.191 210.752L273.121 210.301C275.709 211.399 278.224 212.661 280.65 214.079C281.863 214.79 283.051 215.538 284.216 216.326C284.767 216.699 285.313 217.08 285.853 217.469C286.122 217.664 286.39 217.861 286.657 218.06C286.805 218.17 286.952 218.282 287.1 218.393C287.721 218.858 286.245 217.719 286.896 218.234C289.075 219.944 291.144 221.789 293.091 223.758C294.048 224.731 294.971 225.735 295.862 226.77C296.319 227.301 296.766 227.84 297.205 228.387C297.422 228.658 298.164 229.641 297.255 228.437C297.477 228.732 297.702 229.024 297.921 229.32C299.809 231.874 301.486 234.577 302.936 237.403C304.007 239.491 307.111 240.27 309.068 239.01C310.073 238.391 310.802 237.409 311.101 236.268C311.401 235.127 311.248 233.915 310.676 232.883Z" fill="#3D4956"/>
<path d="M258.453 305.958C257.99 305.979 257.532 305.858 257.141 305.611C256.75 305.363 256.444 305.001 256.265 304.574C256.087 304.147 256.044 303.676 256.142 303.224C256.241 302.772 256.476 302.361 256.816 302.047C256.873 301.821 256.914 301.658 256.971 301.432C256.95 301.383 256.93 301.334 256.909 301.284C254.83 296.33 241.56 310.14 240.986 314.796C240.734 316.855 240.84 318.941 241.301 320.962C237.003 311.595 234.771 301.414 234.757 291.109C234.756 288.523 234.9 285.939 235.188 283.369C235.426 281.262 235.756 279.17 236.178 277.094C238.482 265.826 243.428 255.264 250.61 246.277C254.718 246.506 258.318 245.88 258.666 237.927C258.727 236.512 259.778 235.287 260.009 233.893C259.617 233.944 259.218 233.977 258.826 234.002C258.704 234.009 258.576 234.015 258.453 234.021L258.407 234.024C257.976 234.043 257.549 233.937 257.177 233.72C256.804 233.502 256.503 233.181 256.309 232.796C256.114 232.411 256.036 231.979 256.082 231.55C256.128 231.122 256.297 230.716 256.569 230.381C256.739 230.173 256.908 229.965 257.078 229.757C257.335 229.435 257.598 229.121 257.856 228.8C257.885 228.769 257.913 228.737 257.939 228.703C258.235 228.337 258.531 227.977 258.826 227.611C258.286 226.774 257.56 226.073 256.705 225.562C253.741 223.828 249.652 225.029 247.512 227.708C245.364 230.386 244.959 234.144 245.705 237.49C246.438 240.337 247.652 243.039 249.292 245.48C249.132 245.686 248.964 245.885 248.804 246.09C245.866 249.865 243.305 253.918 241.159 258.191C241.766 253.451 234.339 236.335 231.467 232.709C228.017 228.354 220.943 230.255 220.335 235.775C220.329 235.829 220.324 235.882 220.318 235.935C220.745 236.176 221.162 236.431 221.571 236.701C222.084 237.044 222.482 237.533 222.712 238.106C222.942 238.678 222.994 239.306 222.86 239.909C222.726 240.511 222.414 241.058 221.964 241.48C221.513 241.902 220.946 242.178 220.335 242.272L220.273 242.281C214.563 250.427 232.869 271.629 237.451 266.868C235.294 272.975 233.941 279.335 233.426 285.79C233.135 289.599 233.152 293.424 233.478 297.23L233.458 297.095C232.44 288.806 214.974 276.483 209.874 277.51C206.936 278.101 204.042 277.967 204.488 280.928C204.495 280.975 204.502 281.022 204.51 281.07C205.301 281.392 206.072 281.763 206.818 282.181C207.244 282.421 207.662 282.676 208.07 282.946C208.584 283.289 208.981 283.779 209.211 284.351C209.441 284.923 209.493 285.552 209.36 286.154C209.226 286.756 208.914 287.304 208.463 287.725C208.013 288.147 207.445 288.423 206.835 288.517L206.773 288.527C206.728 288.533 206.689 288.539 206.644 288.546C204.045 297.481 223.321 311.902 235.04 307.314H235.046C236.208 312.356 237.89 317.264 240.067 321.958H258.003C258.068 321.759 258.125 321.553 258.183 321.354C256.523 321.459 254.856 321.359 253.22 321.059C254.551 319.427 255.882 317.783 257.213 316.152C257.242 316.121 257.27 316.089 257.296 316.055C257.971 315.22 258.653 314.392 259.328 313.557L259.328 313.556C259.364 310.996 259.07 308.443 258.453 305.958L258.453 305.958ZM237.913 265.59L237.923 265.577L237.913 265.603V265.59ZM233.941 301.372L233.786 301.026C233.793 300.775 233.793 300.525 233.786 300.268C233.786 300.197 233.773 300.126 233.773 300.056C233.831 300.499 233.883 300.942 233.947 301.385L233.941 301.372Z" fill="#3D4956"/>
<path d="M56.9191 268.669C60.5495 268.669 63.4925 265.729 63.4925 262.102C63.4925 258.475 60.5495 255.534 56.9191 255.534C53.2887 255.534 50.3457 258.475 50.3457 262.102C50.3457 265.729 53.2887 268.669 56.9191 268.669Z" fill="#3D4956"/>
<path d="M135.8 340.315C139.43 340.315 142.373 337.374 142.373 333.747C142.373 330.12 139.43 327.18 135.8 327.18C132.17 327.18 129.227 330.12 129.227 333.747C129.227 337.374 132.17 340.315 135.8 340.315Z" fill="#3D4956"/>
<path d="M435.189 340.315C438.82 340.315 441.763 337.374 441.763 333.747C441.763 330.12 438.82 327.18 435.189 327.18C431.559 327.18 428.616 330.12 428.616 333.747C428.616 337.374 431.559 340.315 435.189 340.315Z" fill="#3D4956"/>
<path d="M451.324 256.729C454.954 256.729 457.897 253.788 457.897 250.161C457.897 246.534 454.954 243.594 451.324 243.594C447.694 243.594 444.751 246.534 444.751 250.161C444.751 253.788 447.694 256.729 451.324 256.729Z" fill="#3D4956"/>
<path d="M432.201 195.83C435.832 195.83 438.775 192.89 438.775 189.263C438.775 185.636 435.832 182.695 432.201 182.695C428.571 182.695 425.628 185.636 425.628 189.263C425.628 192.89 428.571 195.83 432.201 195.83Z" fill="#3D4956"/>
<path d="M157.911 250.161C157.907 251.839 157.257 253.45 156.097 254.663C154.937 255.876 153.354 256.596 151.677 256.675C150 256.755 148.356 256.187 147.086 255.089C145.817 253.991 145.018 252.448 144.855 250.778C144.693 249.109 145.179 247.44 146.214 246.119C147.248 244.797 148.751 243.924 150.412 243.679C152.073 243.434 153.765 243.836 155.138 244.803C156.51 245.769 157.458 247.226 157.785 248.871C157.869 249.296 157.911 249.728 157.911 250.161V250.161Z" fill="#3D4956"/>
<path d="M289.379 214.936C293.009 214.936 295.952 211.995 295.952 208.368C295.952 204.741 293.009 201.801 289.379 201.801C285.749 201.801 282.806 204.741 282.806 208.368C282.806 211.995 285.749 214.936 289.379 214.936Z" fill="#3D4956"/>
<path d="M224.242 208.368C224.238 210.046 223.589 211.657 222.429 212.87C221.268 214.083 219.686 214.803 218.009 214.882C216.331 214.962 214.688 214.394 213.418 213.296C212.148 212.198 211.35 210.655 211.187 208.985C211.025 207.316 211.511 205.647 212.545 204.326C213.58 203.004 215.083 202.131 216.744 201.886C218.405 201.641 220.097 202.043 221.469 203.01C222.842 203.976 223.79 205.433 224.117 207.078C224.201 207.503 224.243 207.935 224.242 208.368V208.368Z" fill="#3D4956"/>
<path d="M139.386 189.263C139.382 190.94 138.732 192.552 137.572 193.765C136.412 194.977 134.829 195.698 133.152 195.777C131.475 195.856 129.831 195.288 128.561 194.191C127.292 193.093 126.493 191.55 126.33 189.88C126.168 188.21 126.654 186.542 127.688 185.22C128.723 183.899 130.226 183.025 131.887 182.78C133.548 182.535 135.24 182.938 136.612 183.904C137.985 184.871 138.933 186.328 139.26 187.973C139.344 188.398 139.386 188.83 139.386 189.263V189.263Z" fill="#3D4956"/>
<path d="M358.101 271.058C361.731 271.058 364.674 268.117 364.674 264.49C364.674 260.863 361.731 257.923 358.101 257.923C354.471 257.923 351.528 260.863 351.528 264.49C351.528 268.117 354.471 271.058 358.101 271.058Z" fill="#3D4956"/>
<path d="M254.719 211.353C260 211.353 264.28 207.076 264.28 201.801C264.28 196.525 260 192.248 254.719 192.248C249.439 192.248 245.158 196.525 245.158 201.801C245.158 207.076 249.439 211.353 254.719 211.353Z" fill="#3D4956"/>
<path d="M513.288 340.816L0.711527 341C0.618087 341 0.52556 340.982 0.439233 340.946C0.352906 340.91 0.274473 340.858 0.208401 340.792C0.142329 340.726 0.0899119 340.647 0.0541541 340.561C0.0183964 340.475 0 340.382 0 340.289C0 340.196 0.0183964 340.103 0.0541541 340.017C0.0899119 339.931 0.142329 339.852 0.208401 339.786C0.274473 339.72 0.352906 339.668 0.439233 339.632C0.52556 339.597 0.618087 339.578 0.711527 339.578L513.288 339.395C513.477 339.395 513.657 339.47 513.79 339.604C513.923 339.737 513.998 339.917 513.998 340.106C513.998 340.294 513.923 340.474 513.79 340.608C513.657 340.741 513.477 340.816 513.288 340.816V340.816Z" fill="#CACACA"/>
</g>
<defs>
<clipPath id="clip0_8_2">
<rect width="514" height="341" fill="white"/>
</clipPath>
</defs>
</svg>
