<svg width="442" height="539" viewBox="0 0 442 539" fill="none" xmlns="http://www.w3.org/2000/svg">
<g clip-path="url(#clip0_101_232)">
<path d="M441.22 536.35V538.35H73.97V0H75.97V536.35H441.22Z" fill="#3D4856"/>
<path d="M328.18 474.883C328.18 474.883 327.029 480.751 325.316 489.637C322.887 502.132 319.363 520.606 316.401 537.172H98.7468C114.667 511.537 135.963 484.485 152.908 464.255L154.171 462.739C154.719 462.093 155.252 461.462 155.786 460.83C162.496 452.898 168.364 446.188 172.744 441.246C172.744 441.232 172.758 441.232 172.772 441.232C177.896 435.462 180.999 432.135 180.999 432.135L186.446 433.721L199.025 437.371L291.595 464.255L328.18 474.883Z" fill="#2F2E41"/>
<path d="M338.537 481.529C338.117 501.939 232.427 472.679 216.517 458.159C200.607 443.629 169.507 468.259 154.107 458.789C138.707 449.309 181.897 413.369 181.897 413.369C181.554 404.817 178.938 396.512 174.317 389.309C166.737 377.939 174.317 384.259 178.887 378.959C183.447 373.659 184.787 331.459 184.787 331.459L174.437 299.969C169.531 285.055 169.397 268.983 174.054 253.99C178.71 238.997 187.926 225.829 200.417 216.319L226.107 183.409L265.267 180.879L282.957 201.099L318.327 225.099L312.147 301.739C312.147 301.739 314.057 313.119 316.857 330.189C318.767 341.849 321.097 356.179 323.507 371.349C330.757 417.019 338.767 470.299 338.537 481.529Z" fill="#3D4856"/>
<path d="M373.518 456.559L364.458 415.441L387.225 406.988L395.257 450.802C397.321 452.419 398.893 454.58 399.796 457.041C400.699 459.503 400.898 462.168 400.369 464.736C399.841 467.304 398.607 469.674 396.805 471.579C395.004 473.485 392.707 474.85 390.172 475.521C387.637 476.192 384.966 476.143 382.457 475.38C379.949 474.616 377.704 473.167 375.973 471.197C374.243 469.227 373.096 466.814 372.663 464.228C372.229 461.642 372.525 458.986 373.518 456.559H373.518Z" fill="#FFB6B6"/>
<path d="M281.336 208.297L282.011 208.2C288.292 207.298 294.698 207.942 300.674 210.074C306.65 212.205 312.017 215.762 316.309 220.435C327.514 232.619 342.377 251.044 351.353 271.243C367.206 306.916 373.275 323.152 374.3 336.981C375.325 350.81 371.611 347.609 377.706 354.805C383.801 362.001 386.49 351.373 386.183 365.996C385.876 380.619 380.293 380.337 386.132 384.076C391.971 387.815 395.966 385.433 394.609 395.267C393.252 405.101 394.84 407.764 395.096 411.222C395.352 414.679 403.266 437.035 403.266 437.035C403.266 437.035 377.99 443.08 367.593 452.888C367.593 452.888 367.131 427.894 362.086 425.486C357.041 423.079 352.252 424.129 353.865 417.753C355.479 411.376 362.931 408.738 353.891 408.713C344.851 408.687 290.532 292.045 290.532 292.045L281.336 208.297Z" fill="#3D4856"/>
<path d="M284.124 142.203C287.771 119.73 272.51 98.5554 250.036 94.9085C227.563 91.2615 206.388 106.523 202.741 128.997C199.094 151.47 214.356 172.645 236.83 176.292C259.303 179.939 280.478 164.677 284.124 142.203Z" fill="#FFB6B6"/>
<path d="M291.483 122.205C294.308 131.661 288.593 142.476 281.178 134.868C277.93 131.536 278.072 127.387 273.585 126.187C269.961 125.214 266.062 126.326 262.757 128.08C262.167 128.389 259.524 120.664 258.967 120.999C258.599 120.753 260.303 128.583 259.909 128.37C256.953 126.787 253.503 126.399 250.269 127.285C252.824 128.141 255.046 129.779 256.62 131.966C255.513 132.707 254.393 133.451 253.247 134.109C251.093 135.352 231.444 134.246 228.967 133.999C217.079 132.811 222.972 140.387 218.066 151.281C217.944 151.553 217.82 151.829 217.694 152.109L217.505 152.807C217.817 149.736 208.315 147.448 208.866 151.77C209.257 154.839 211.913 161.661 213.401 164.37C199.148 154.631 185.268 144.2 197.092 121.66C198.609 118.768 197.324 114.983 199 112.163C200.678 109.358 204.175 107.389 207.269 108.459C207.007 103.527 208.086 98.6154 210.392 94.2476C212.698 89.8797 216.145 86.2183 220.366 83.6527C224.586 81.0872 229.423 79.7133 234.362 79.6771C239.302 79.641 244.158 80.9439 248.416 83.4474C252.372 85.769 255.072 93.6973 259.301 91.8845C267.441 88.3951 271.013 91.7157 271.706 97.4191C272.058 100.318 277.797 96.8476 280.303 98.3584C283.206 100.111 283.703 103.782 284.138 107.313C281.549 107.569 279.095 108.59 277.089 110.247C279.768 109.974 282.465 110.552 284.796 111.9C284.841 111.92 284.883 111.944 284.923 111.972C286.457 117.809 286.3 119.103 291.483 122.205Z" fill="#2F2E41"/>
<path d="M441.22 193.43V204.52H374.7C373.971 204.525 373.248 204.386 372.572 204.111C371.897 203.836 371.282 203.431 370.764 202.918C370.245 202.405 369.833 201.795 369.551 201.123C369.268 200.451 369.121 199.729 369.118 199C369.114 198.271 369.255 197.548 369.531 196.873C369.808 196.198 370.215 195.585 370.729 195.067C371.242 194.55 371.853 194.139 372.526 193.858C373.199 193.577 373.921 193.432 374.65 193.43H441.22Z" fill="#338FFF"/>
<path d="M62.83 289.096C57.2584 281.18 52.6326 272.639 49.0472 263.647C48.939 263.376 48.752 263.143 48.5102 262.979C48.2684 262.815 47.9831 262.728 47.691 262.728C47.399 262.728 47.1136 262.816 46.8719 262.979C46.6302 263.143 46.4432 263.376 46.3351 263.647C42.7515 272.639 38.1268 281.18 32.5554 289.095C32.3696 289.35 32.2705 289.657 32.273 289.973C32.2755 290.288 32.3793 290.594 32.5691 290.845C32.7589 291.097 33.0246 291.281 33.3269 291.369C33.6293 291.458 33.9522 291.448 34.2479 291.339L45.7632 287.173V358.457H49.6181V287.172L61.1376 291.339C61.4334 291.448 61.7563 291.459 62.0586 291.37C62.3609 291.281 62.6266 291.097 62.8164 290.846C63.0062 290.594 63.11 290.288 63.1124 289.973C63.1149 289.658 63.0159 289.35 62.83 289.096V289.096Z" fill="#3D4856"/>
<path d="M441.22 222.52V317.21H437.89V245.92L426.38 250.09C426.084 250.201 425.761 250.213 425.458 250.125C425.154 250.037 424.888 249.854 424.697 249.602C424.506 249.351 424.401 249.045 424.398 248.729C424.395 248.413 424.494 248.105 424.68 247.85C430.251 239.934 434.876 231.392 438.46 222.4C438.535 222.216 438.647 222.048 438.788 221.908C438.928 221.767 439.096 221.655 439.28 221.58C439.458 221.509 439.648 221.473 439.84 221.476C440.031 221.479 440.22 221.519 440.396 221.596C440.572 221.672 440.731 221.782 440.864 221.92C440.996 222.058 441.101 222.221 441.17 222.4C441.19 222.44 441.2 222.48 441.22 222.52Z" fill="#3D4856"/>
<path d="M298.868 463.087C285.532 452.667 279.751 424.493 252.358 416.828C236.381 412.358 222.907 417.629 200.317 426.466C170.548 438.111 157.43 451.319 139.811 463.087L298.868 463.087Z" fill="#F2F2F2"/>
<path d="M441.22 409.12V463.09H320.25C325.21 459.24 329.67 452.78 334.6 444.84C340.93 434.64 348.05 422 358.03 409.32C358.08 409.25 358.14 409.19 358.19 409.12H441.22Z" fill="#F2F2F2"/>
<path d="M441.22 357.04V403.34H362.95C369.42 395.801 376.674 388.973 384.59 382.97C386.72 381.34 388.9 379.777 391.13 378.28C398.278 373.506 405.846 369.393 413.74 365.99C422.607 362.174 431.806 359.178 441.22 357.04V357.04Z" fill="#F2F2F2"/>
<path d="M441.22 328.17V385.99C435.114 385.986 429.167 384.048 424.23 380.455C419.293 376.862 415.621 371.799 413.74 365.99C412.801 363.113 412.325 360.106 412.33 357.08C412.331 349.416 415.375 342.067 420.792 336.646C426.209 331.225 433.557 328.176 441.22 328.17V328.17Z" fill="#338FFF"/>
<path d="M120.04 243.06C120.043 243.788 119.902 244.508 119.626 245.182C119.35 245.855 118.944 246.467 118.432 246.983C117.919 247.5 117.31 247.91 116.639 248.191C115.967 248.472 115.248 248.617 114.52 248.62H0V237.53H114.48C115.95 237.527 117.362 238.107 118.404 239.144C119.447 240.181 120.035 241.59 120.04 243.06V243.06Z" fill="#338FFF"/>
<path d="M62.5206 427.08L82.4265 389.978L62.8183 375.65L43.1683 415.625C40.7423 416.62 38.6418 418.272 37.1029 420.395C35.5641 422.518 34.648 425.028 34.4576 427.643C34.2672 430.258 34.8101 432.875 36.0252 435.198C37.2402 437.522 39.0793 439.46 41.3357 440.796C43.5921 442.131 46.1763 442.811 48.7979 442.759C51.4194 442.706 53.9743 441.923 56.1754 440.498C58.3764 439.073 60.1363 437.063 61.2573 434.692C62.3782 432.322 62.8157 429.686 62.5206 427.08V427.08Z" fill="#FFB6B6"/>
<path d="M227.453 222.441L226.829 222.164C221.031 219.588 214.692 218.464 208.361 218.889C202.03 219.315 195.898 221.277 190.497 224.606C176.399 233.282 157.084 246.968 142.951 263.962C117.99 293.977 99.0513 298.772 94.3028 311.801C89.5543 324.829 93.9985 322.759 86.1754 328.025C78.3524 333.292 78.6566 322.333 74.9735 336.488C71.2905 350.643 76.7392 351.891 70.1033 353.9C63.4675 355.909 60.2711 352.53 58.9014 362.362C57.5317 372.194 55.2791 374.325 54.092 377.582C52.9049 380.839 39.207 400.2 39.207 400.2C39.207 400.2 61.8851 412.893 69.2213 425.16C69.2213 425.16 76.4658 401.234 81.9755 400.29C87.4852 399.347 91.8077 401.66 91.9903 395.085C92.1728 388.51 85.7194 383.944 94.4254 386.379C103.131 388.814 167.382 319.309 167.382 319.309L227.453 222.441Z" fill="#3D4856"/>
<path d="M77.1419 401.04C77.6732 385.082 65.1671 371.714 49.2085 371.182C33.25 370.651 19.8823 383.157 19.3509 399.116C18.8195 415.074 31.3257 428.442 47.2843 428.973C63.2428 429.505 76.6105 416.999 77.1419 401.04Z" fill="#F2F2F2"/>
</g>
<defs>
<clipPath id="clip0_101_232">
<rect width="441.22" height="538.35" fill="white"/>
</clipPath>
</defs>
</svg>
