<svg width="334" height="668" viewBox="0 0 334 668" fill="none" xmlns="http://www.w3.org/2000/svg">
<path d="M333.928 158.687H330.258V58.1731C330.258 42.7446 324.129 27.9481 313.219 17.0385C302.31 6.12893 287.513 0 272.085 0H59.1319C43.7034 0 28.9068 6.12893 17.9973 17.0385C7.0877 27.9481 0.95874 42.7446 0.95874 58.1731V609.601C0.95874 625.029 7.0877 639.826 17.9973 650.736C28.9068 661.645 43.7034 667.774 59.1319 667.774H272.085C287.513 667.774 302.31 661.645 313.219 650.736C324.129 639.826 330.258 625.029 330.258 609.601V230.234H333.928V158.687Z" fill="#E6E6E6"/>
<path d="M274.432 15.1333H246.635C247.914 18.2675 248.402 21.6683 248.057 25.0358C247.712 28.4034 246.544 31.6343 244.656 34.444C242.768 37.2537 240.217 39.5559 237.23 41.1477C234.242 42.7395 230.909 43.5721 227.524 43.572H105.526C102.142 43.5717 98.8089 42.7391 95.8218 41.1473C92.8346 39.5556 90.2848 37.2537 88.3968 34.4444C86.5089 31.6351 85.3407 28.4046 84.9954 25.0375C84.6501 21.6704 85.1381 18.2701 86.4164 15.136H60.4496C48.9274 15.136 37.8771 19.7132 29.7297 27.8606C21.5823 36.008 17.0051 47.0583 17.0051 58.5805V609.196C17.0051 620.718 21.5823 631.769 29.7297 639.916C37.8771 648.064 48.9274 652.641 60.4496 652.641H274.424C285.946 652.641 296.996 648.064 305.144 639.916C313.291 631.769 317.868 620.718 317.868 609.196V609.196V58.5778C317.868 47.0556 313.291 36.0053 305.144 27.8579C296.996 19.7104 285.946 15.1333 274.424 15.1333H274.432Z" fill="white"/>
<path d="M300.219 447.6H43.6525C42.3929 447.598 41.1852 447.097 40.2946 446.207C39.4039 445.316 38.9028 444.108 38.9014 442.849V379.206C38.9028 377.946 39.4039 376.739 40.2946 375.848C41.1852 374.957 42.3929 374.456 43.6525 374.455H300.219C301.478 374.456 302.686 374.957 303.577 375.848C304.467 376.739 304.968 377.946 304.97 379.206V442.85C304.968 444.109 304.467 445.316 303.576 446.207C302.686 447.097 301.478 447.598 300.219 447.6V447.6ZM43.6525 376.355C42.8966 376.356 42.1719 376.657 41.6375 377.191C41.103 377.725 40.8024 378.45 40.8017 379.206V442.85C40.8024 443.605 41.103 444.33 41.6375 444.865C42.1719 445.399 42.8966 445.7 43.6525 445.7H300.219C300.975 445.7 301.699 445.399 302.234 444.865C302.768 444.33 303.069 443.605 303.07 442.85V379.206C303.069 378.45 302.768 377.725 302.234 377.191C301.699 376.657 300.975 376.356 300.219 376.355H43.6525Z" fill="#CCCCCC"/>
<path d="M76.9103 430.981C87.9312 430.981 96.8654 422.047 96.8654 411.026C96.8654 400.005 87.9312 391.071 76.9103 391.071C65.8895 391.071 56.9553 400.005 56.9553 411.026C56.9553 422.047 65.8895 430.981 76.9103 430.981Z" fill="#CCCCCC"/>
<path d="M122.997 397.724C122.556 397.717 122.118 397.797 121.708 397.961C121.298 398.125 120.925 398.369 120.61 398.678C120.295 398.988 120.045 399.357 119.874 399.764C119.704 400.171 119.616 400.608 119.616 401.05C119.616 401.491 119.704 401.928 119.874 402.335C120.045 402.743 120.295 403.112 120.61 403.421C120.925 403.731 121.298 403.975 121.708 404.138C122.118 404.302 122.556 404.383 122.997 404.376H279.792C280.23 404.384 280.664 404.306 281.072 404.146C281.479 403.986 281.85 403.747 282.165 403.443C282.48 403.139 282.732 402.776 282.906 402.375C283.08 401.974 283.174 401.542 283.181 401.105C283.188 400.667 283.109 400.233 282.948 399.826C282.787 399.419 282.547 399.048 282.243 398.734C281.938 398.42 281.574 398.169 281.173 397.996C280.771 397.823 280.339 397.73 279.901 397.724H122.999H122.997Z" fill="#E6E6E6"/>
<path d="M122.997 417.679C122.115 417.679 121.269 418.03 120.645 418.653C120.022 419.277 119.671 420.123 119.671 421.005C119.671 421.887 120.022 422.734 120.645 423.357C121.269 423.981 122.115 424.331 122.997 424.331H279.792C280.23 424.34 280.664 424.262 281.072 424.102C281.479 423.942 281.85 423.703 282.165 423.399C282.48 423.095 282.732 422.732 282.906 422.331C283.08 421.93 283.174 421.498 283.181 421.061C283.188 420.623 283.109 420.189 282.948 419.782C282.787 419.375 282.547 419.004 282.242 418.69C281.938 418.376 281.574 418.125 281.172 417.952C280.771 417.778 280.339 417.686 279.901 417.68H122.999L122.997 417.679Z" fill="#E6E6E6"/>
<path d="M300.219 554.027H43.6525C42.3929 554.026 41.1852 553.525 40.2946 552.634C39.4039 551.743 38.9028 550.536 38.9014 549.276V485.633C38.9028 484.374 39.4039 483.166 40.2946 482.276C41.1852 481.385 42.3929 480.884 43.6525 480.882H300.219C301.478 480.884 302.686 481.385 303.577 482.276C304.467 483.166 304.968 484.374 304.97 485.633V549.277C304.968 550.537 304.467 551.744 303.576 552.634C302.686 553.525 301.478 554.026 300.219 554.027V554.027ZM43.6525 482.783C42.8966 482.783 42.1719 483.084 41.6375 483.618C41.103 484.153 40.8024 484.878 40.8017 485.633V549.277C40.8024 550.033 41.103 550.758 41.6375 551.292C42.1719 551.827 42.8966 552.127 43.6525 552.128H300.219C300.975 552.127 301.699 551.827 302.234 551.292C302.768 550.758 303.069 550.033 303.07 549.277V485.633C303.069 484.878 302.768 484.153 302.234 483.618C301.699 483.084 300.975 482.783 300.219 482.783H43.6525Z" fill="#CCCCCC"/>
<path d="M76.9103 537.409C87.9312 537.409 96.8654 528.475 96.8654 517.454C96.8654 506.433 87.9312 497.499 76.9103 497.499C65.8895 497.499 56.9553 506.433 56.9553 517.454C56.9553 528.475 65.8895 537.409 76.9103 537.409Z" fill="#CCCCCC"/>
<path d="M122.997 504.152C122.115 504.152 121.269 504.502 120.645 505.126C120.022 505.75 119.671 506.596 119.671 507.478C119.671 508.36 120.022 509.206 120.645 509.83C121.269 510.453 122.115 510.804 122.997 510.804H279.792C280.23 510.812 280.664 510.734 281.072 510.574C281.479 510.414 281.85 510.175 282.165 509.872C282.48 509.568 282.732 509.205 282.906 508.803C283.08 508.402 283.174 507.97 283.181 507.533C283.188 507.096 283.109 506.661 282.948 506.254C282.787 505.847 282.547 505.476 282.242 505.162C281.938 504.848 281.574 504.597 281.172 504.424C280.771 504.251 280.339 504.159 279.901 504.153H122.999L122.997 504.152Z" fill="#E6E6E6"/>
<path d="M122.997 524.107C122.115 524.107 121.269 524.457 120.645 525.081C120.022 525.705 119.671 526.551 119.671 527.433C119.671 528.315 120.022 529.161 120.645 529.785C121.269 530.409 122.115 530.759 122.997 530.759H279.792C280.23 530.767 280.664 530.689 281.072 530.529C281.479 530.369 281.85 530.13 282.165 529.827C282.48 529.523 282.732 529.16 282.906 528.758C283.08 528.357 283.174 527.925 283.181 527.488C283.188 527.051 283.109 526.616 282.948 526.209C282.787 525.802 282.547 525.431 282.242 525.117C281.938 524.803 281.574 524.553 281.172 524.379C280.771 524.206 280.339 524.114 279.901 524.108H122.999L122.997 524.107Z" fill="#E6E6E6"/>
<path d="M166.536 315.531C142.605 315.541 119.649 306.044 102.72 289.129C85.7906 272.214 76.2739 249.267 76.2634 225.335V225.26C76.2634 225.071 76.2634 224.872 76.2745 224.683C76.5497 175.246 117.043 134.986 166.536 134.986C190.478 134.985 213.44 144.495 230.37 161.423C247.301 178.352 256.813 201.312 256.814 225.254C256.816 249.196 247.306 272.158 230.378 289.088C213.449 306.019 190.488 315.531 166.546 315.532H166.536V315.531ZM166.536 136.883C143.205 136.935 120.837 146.192 104.292 162.642C87.7468 179.093 78.3617 201.407 78.1757 224.738C78.1656 224.94 78.1655 225.105 78.1655 225.256C78.1633 242.737 83.3451 259.826 93.0555 274.362C102.766 288.898 116.569 300.228 132.719 306.919C148.868 313.611 166.64 315.362 183.785 311.953C200.931 308.544 216.68 300.127 229.042 287.767C241.404 275.407 249.823 259.659 253.234 242.513C256.645 225.368 254.895 207.597 248.206 191.446C241.517 175.296 230.189 161.491 215.654 151.779C201.119 142.067 184.03 136.883 166.549 136.883H166.536Z" fill="#CCCCCC"/>
<path d="M213.312 263.481H121.912C121.797 263.482 121.683 263.473 121.571 263.454L164.798 188.581C165.063 188.115 165.446 187.727 165.908 187.458C166.371 187.188 166.897 187.046 167.433 187.046C167.968 187.046 168.494 187.188 168.957 187.458C169.42 187.727 169.803 188.115 170.067 188.581L199.078 238.829L200.469 241.233L213.312 263.481Z" fill="#338FFF"/>
</svg>
